<svg width="888" height="553" viewBox="0 0 888 553" fill="none" xmlns="http://www.w3.org/2000/svg">
<g id="undraw_drone_surveillance_kjjg 1">
<ellipse id="Ellipse 1" cx="443.5" cy="431.5" rx="335.5" ry="120.5" fill="#ACC5CD"/>
<g id="Prop-Right">
<path id="Vector" d="M662.946 197.647L462.092 182.14L622.332 209.462L660.731 202.816L662.946 197.647Z" fill="#3F3D56"/>
<path id="Vector_2" d="M623.809 207.031L662.208 200.385L662.585 199.505L664.423 199.647L662.208 204.816L623.809 211.462L463.569 182.14L511.056 187.806L623.809 207.031Z" fill="#6BC3F4"/>
<path id="Vector_3" d="M680.669 197.647L881.523 182.14L721.283 209.462L682.884 202.816L680.669 197.647Z" fill="#3F3D56"/>
<path id="Vector_4" d="M722.76 207.031L684.361 200.385L683.984 199.505L682.146 199.647L684.361 204.816L722.76 211.462L883 182.14L835.513 187.806L722.76 207.031Z" fill="#6BC3F4"/>
</g>
<g id="Prop-Left">
<g id="Group 3">
<path id="Vector_5" d="M208.07 197.647L7.215 182.14L167.456 209.462L205.855 202.816L208.07 197.647Z" fill="#3F3D56"/>
<path id="Vector_6" d="M165.241 207.031L203.639 200.385L204.017 199.505L205.855 199.647L203.639 204.816L165.241 211.462L5 182.14L52.487 187.806L165.241 207.031Z" fill="#6BC3F4"/>
</g>
<g id="Group 2">
<path id="Vector_7" d="M225.792 197.647L426.647 182.14L266.406 209.462L228.008 202.816L225.792 197.647Z" fill="#3F3D56"/>
<g id="Group 1">
<path id="Vector_8" d="M268.622 207.031L230.223 200.385L229.846 199.505L228.008 199.647L230.223 204.816L268.622 211.462L428.862 182.14L381.375 187.806L268.622 207.031Z" fill="#6BC3F4"/>
</g>
</g>
</g>
<g id="Drone-Body">
<g id="Group 8">
<path id="Vector_9" d="M322.269 320.544C321.245 320.545 320.263 320.953 319.539 321.677C318.815 322.401 318.408 323.383 318.407 324.407V478.722C318.408 479.746 318.815 480.728 319.539 481.452C320.263 482.176 321.245 482.584 322.269 482.585H348.465C349.489 482.584 350.471 482.176 351.195 481.452C351.92 480.728 352.327 479.746 352.328 478.722V324.407C352.327 323.383 351.92 322.401 351.195 321.677C350.471 320.953 349.489 320.545 348.465 320.544H322.269Z" fill="#3F3D56"/>
<path id="Vector_10" d="M540.108 320.544C539.084 320.545 538.102 320.953 537.378 321.677C536.654 322.401 536.246 323.383 536.245 324.407V478.722C536.246 479.746 536.654 480.728 537.378 481.452C538.102 482.176 539.084 482.584 540.108 482.585H566.304C567.328 482.584 568.31 482.176 569.034 481.452C569.758 480.728 570.166 479.746 570.167 478.722V324.407C570.166 323.383 569.758 322.401 569.034 321.677C568.31 320.953 567.328 320.545 566.304 320.544H540.108Z" fill="#3F3D56"/>
<g id="Group 7">
<path id="Vector_11" d="M696.462 278.43L679.478 279.169L523.883 344.815L514.977 352.274L486.747 375.904H398.134L371.447 352.274L361.301 343.287L212.049 279.907L198.757 278.43L243.063 257.016H243.299C253.342 247.482 340.315 240.032 446.133 240.032C551.951 240.032 638.923 247.482 648.966 257.016H649.941L696.462 278.43Z" fill="#3F3D56"/>
<path id="Vector_12" d="M241.846 258.11C242.161 257.225 242.323 256.292 242.324 255.353V220.28C242.324 218.076 241.449 215.963 239.891 214.405C238.333 212.846 236.219 211.971 234.016 211.971H230.642C233.412 209.175 235.293 205.623 236.047 201.76C236.802 197.897 236.396 193.898 234.882 190.266C233.367 186.633 230.812 183.53 227.537 181.347C224.262 179.165 220.415 178 216.479 178C212.544 178 208.696 179.165 205.421 181.347C202.147 183.53 199.591 186.633 198.077 190.266C196.562 193.898 196.157 197.897 196.911 201.76C197.666 205.623 199.546 209.175 202.316 211.971H198.943C197.852 211.971 196.771 212.186 195.763 212.603C194.755 213.021 193.839 213.633 193.068 214.405C192.296 215.176 191.684 216.092 191.266 217.1C190.849 218.108 190.634 219.189 190.634 220.28V255.353C190.633 256.789 191.007 258.2 191.719 259.448C189.211 259.887 186.703 260.365 184.195 260.916C182.668 261.258 181.302 262.11 180.325 263.333C179.347 264.556 178.816 266.075 178.819 267.641V275.973C178.819 277.8 179.545 279.552 180.836 280.844C182.128 282.135 183.88 282.861 185.706 282.861H263.739V262.185C256.534 260.37 249.222 259.009 241.846 258.11V258.11Z" fill="#3F3D56"/>
<g id="Group 6">
<path id="Vector_13" d="M703.639 260.916C701.132 260.365 698.624 259.887 696.116 259.448C696.827 258.2 697.201 256.789 697.201 255.353V220.28C697.201 219.189 696.986 218.108 696.568 217.1C696.151 216.092 695.539 215.176 694.767 214.405C693.996 213.633 693.08 213.021 692.072 212.603C691.064 212.186 689.983 211.971 688.892 211.971H685.518C688.288 209.175 690.169 205.622 690.924 201.76C691.678 197.897 691.273 193.898 689.758 190.266C688.244 186.633 685.688 183.53 682.413 181.347C679.139 179.165 675.291 178 671.356 178C667.42 178 663.573 179.165 660.298 181.347C657.023 183.53 654.467 186.633 652.953 190.266C651.439 193.898 651.033 197.897 651.788 201.76C652.542 205.622 654.423 209.175 657.193 211.971H653.819C652.728 211.971 651.648 212.186 650.64 212.603C649.631 213.021 648.715 213.633 647.944 214.405C647.172 215.176 646.56 216.092 646.143 217.1C645.725 218.108 645.51 219.189 645.51 220.28V255.353C645.512 256.292 645.674 257.225 645.989 258.11C638.613 259.009 631.301 260.37 624.096 262.185V282.861H702.129C703.955 282.861 705.707 282.135 706.999 280.844C708.29 279.552 709.016 277.8 709.016 275.973V267.641C709.019 266.075 708.488 264.556 707.51 263.333C706.532 262.11 705.167 261.258 703.639 260.916V260.916Z" fill="#3F3D56"/>
</g>
</g>
</g>
<g id="Group 9">
<path id="Vector_14" d="M514.977 352.274L486.747 375.904H398.134L371.447 352.274H397.987L399.146 346.492C399.486 344.791 400.404 343.261 401.745 342.161C403.086 341.061 404.767 340.459 406.501 340.459H480.595C482.33 340.459 484.01 341.061 485.351 342.161C486.692 343.261 487.61 344.791 487.95 346.492L489.11 352.274H514.977Z" fill="#2F5C9F"/>
<path id="Vector_15" d="M473.086 346.735H414.011V358.55H473.086V346.735Z" fill="white"/>
</g>
</g>
</g>
</svg>
