<svg width="483" height="71" viewBox="0 0 483 71" fill="none" xmlns="http://www.w3.org/2000/svg">
<g id="Name">
<path id="VICTOR LEUNG" d="M40.9375 47.7188L51.25 13.5H61.6875L45.8438 59H36.0625L20.2812 13.5H30.6875L40.9375 47.7188ZM75.9688 59H66.5938V13.5H75.9688V59ZM120.406 43.8438C120.052 48.7396 118.24 52.5938 114.969 55.4062C111.719 58.2188 107.427 59.625 102.094 59.625C96.2604 59.625 91.6667 57.6667 88.3125 53.75C84.9792 49.8125 83.3125 44.4167 83.3125 37.5625V34.7812C83.3125 30.4062 84.0833 26.5521 85.625 23.2188C87.1667 19.8854 89.3646 17.3333 92.2188 15.5625C95.0938 13.7708 98.4271 12.875 102.219 12.875C107.469 12.875 111.698 14.2812 114.906 17.0938C118.115 19.9062 119.969 23.8542 120.469 28.9375H111.094C110.865 26 110.042 23.875 108.625 22.5625C107.229 21.2292 105.094 20.5625 102.219 20.5625C99.0938 20.5625 96.75 21.6875 95.1875 23.9375C93.6458 26.1667 92.8542 29.6354 92.8125 34.3438V37.7812C92.8125 42.6979 93.5521 46.2917 95.0312 48.5625C96.5312 50.8333 98.8854 51.9688 102.094 51.9688C104.99 51.9688 107.146 51.3125 108.562 50C110 48.6667 110.823 46.6146 111.031 43.8438H120.406ZM159.875 21.0938H145.938V59H136.562V21.0938H122.812V13.5H159.875V21.0938ZM201.75 37.2812C201.75 41.7604 200.958 45.6875 199.375 49.0625C197.792 52.4375 195.521 55.0417 192.562 56.875C189.625 58.7083 186.25 59.625 182.438 59.625C178.667 59.625 175.302 58.7188 172.344 56.9062C169.385 55.0938 167.094 52.5104 165.469 49.1562C163.844 45.7812 163.021 41.9062 163 37.5312V35.2812C163 30.8021 163.802 26.8646 165.406 23.4688C167.031 20.0521 169.312 17.4375 172.25 15.625C175.208 13.7917 178.583 12.875 182.375 12.875C186.167 12.875 189.531 13.7917 192.469 15.625C195.427 17.4375 197.708 20.0521 199.312 23.4688C200.938 26.8646 201.75 30.7917 201.75 35.25V37.2812ZM192.25 35.2188C192.25 30.4479 191.396 26.8229 189.688 24.3438C187.979 21.8646 185.542 20.625 182.375 20.625C179.229 20.625 176.802 21.8542 175.094 24.3125C173.385 26.75 172.521 30.3333 172.5 35.0625V37.2812C172.5 41.9271 173.354 45.5312 175.062 48.0938C176.771 50.6562 179.229 51.9375 182.438 51.9375C185.583 51.9375 188 50.7083 189.688 48.25C191.375 45.7708 192.229 42.1667 192.25 37.4375V35.2188ZM225.406 42.3438H217.938V59H208.562V13.5H225.469C230.844 13.5 234.99 14.6979 237.906 17.0938C240.823 19.4896 242.281 22.875 242.281 27.25C242.281 30.3542 241.604 32.9479 240.25 35.0312C238.917 37.0938 236.885 38.7396 234.156 39.9688L244 58.5625V59H233.938L225.406 42.3438ZM217.938 34.75H225.5C227.854 34.75 229.677 34.1562 230.969 32.9688C232.26 31.7604 232.906 30.1042 232.906 28C232.906 25.8542 232.292 24.1667 231.062 22.9375C229.854 21.7083 227.99 21.0938 225.469 21.0938H217.938V34.75ZM274.75 51.4688H294.656V59H265.375V13.5H274.75V51.4688ZM327.438 39.2812H309.438V51.4688H330.562V59H300.062V13.5H330.5V21.0938H309.438V31.9375H327.438V39.2812ZM370.5 13.5V43.4688C370.5 48.4479 368.938 52.3854 365.812 55.2812C362.708 58.1771 358.458 59.625 353.062 59.625C347.75 59.625 343.531 58.2188 340.406 55.4062C337.281 52.5938 335.688 48.7292 335.625 43.8125V13.5H345V43.5312C345 46.5104 345.708 48.6875 347.125 50.0625C348.562 51.4167 350.542 52.0938 353.062 52.0938C358.333 52.0938 361.01 49.3229 361.094 43.7812V13.5H370.5ZM415.188 59H405.812L387.562 29.0625V59H378.188V13.5H387.562L405.844 43.5V13.5H415.188V59ZM459.375 53.25C457.688 55.2708 455.302 56.8438 452.219 57.9688C449.135 59.0729 445.719 59.625 441.969 59.625C438.031 59.625 434.573 58.7708 431.594 57.0625C428.635 55.3333 426.344 52.8333 424.719 49.5625C423.115 46.2917 422.292 42.4479 422.25 38.0312V34.9375C422.25 30.3958 423.01 26.4688 424.531 23.1562C426.073 19.8229 428.281 17.2812 431.156 15.5312C434.052 13.7604 437.438 12.875 441.312 12.875C446.708 12.875 450.927 14.1667 453.969 16.75C457.01 19.3125 458.812 23.0521 459.375 27.9688H450.25C449.833 25.3646 448.906 23.4583 447.469 22.25C446.052 21.0417 444.094 20.4375 441.594 20.4375C438.406 20.4375 435.979 21.6354 434.312 24.0312C432.646 26.4271 431.802 29.9896 431.781 34.7188V37.625C431.781 42.3958 432.688 46 434.5 48.4375C436.312 50.875 438.969 52.0938 442.469 52.0938C445.99 52.0938 448.5 51.3438 450 49.8438V42H441.469V35.0938H459.375V53.25Z" fill="black"/>
</g>
</svg>
