<svg width="2561" height="1763" viewBox="0 0 2561 1763" fill="none" xmlns="http://www.w3.org/2000/svg">
<path d="M2269.01 1753C2231.42 1734.13 2224.66 1730.6 2222.96 1728.96C2222.01 1728.05 2220.22 1727.3 2218.99 1727.3C2217.75 1727.3 2214.03 1725.65 2210.7 1723.64C2207.38 1721.62 2199.64 1716.92 2193.51 1713.19C2187.38 1709.46 2176.73 1703.49 2169.83 1699.92C2162.94 1696.35 2155.25 1692.06 2152.75 1690.38C2150.24 1688.7 2143.28 1684.85 2137.27 1681.82C2131.26 1678.79 2123.88 1674.92 2120.88 1673.23C2106.18 1664.96 2091.46 1656.59 2089 1655.1C2087.5 1654.19 2082.99 1651.88 2078.99 1649.97C2074.98 1648.06 2070.47 1645.74 2068.97 1644.8C2066.69 1643.38 2044.88 1631.84 2000.5 1608.58C1996.4 1606.43 1989.85 1602.73 1985.93 1600.35C1982.02 1597.97 1973.49 1593.25 1966.98 1589.85C1949.24 1580.59 1943.41 1577.32 1932.01 1570.28C1926.29 1566.75 1920.82 1563.86 1919.84 1563.86C1918.87 1563.86 1916.98 1562.87 1915.66 1561.66C1914.33 1560.45 1909.56 1557.54 1905.06 1555.19C1900.55 1552.84 1894.81 1549.56 1892.31 1547.89C1880.33 1539.94 1862.11 1529.16 1852.08 1524.09C1849.48 1522.78 1844.4 1518.93 1840.78 1515.54C1836.32 1511.36 1832.5 1509.38 1828.9 1509.38C1825.98 1509.38 1821.51 1507.8 1818.96 1505.86C1816.41 1503.93 1813.56 1502.35 1812.62 1502.35C1811.68 1502.35 1809.43 1500.77 1807.62 1498.83C1805.8 1496.9 1803.67 1495.32 1802.88 1495.32C1802.08 1495.32 1793.63 1490.57 1784.09 1484.77C1774.55 1478.97 1765.49 1474.23 1763.96 1474.23C1762.43 1474.23 1761.17 1473.45 1761.17 1472.51C1761.17 1471.56 1757.78 1468.99 1753.64 1466.79C1749.5 1464.6 1744.78 1462.01 1743.16 1461.05C1724.29 1449.79 1717.6 1446.11 1716.01 1446.11C1714.97 1446.11 1713.85 1445.37 1713.52 1444.47C1713.19 1443.58 1701.84 1436.5 1688.32 1428.75C1674.8 1420.99 1662.74 1413.82 1661.53 1412.8C1660.32 1411.79 1658.81 1410.96 1658.17 1410.96C1657.53 1410.96 1654.69 1409.37 1651.86 1407.42C1649.04 1405.48 1642.27 1401.63 1636.83 1398.87C1631.39 1396.1 1621.28 1390.31 1614.37 1385.99C1607.46 1381.67 1595.25 1374.34 1587.24 1369.7C1579.23 1365.06 1570.22 1359.6 1567.23 1357.55C1564.24 1355.51 1560.14 1352.99 1558.12 1351.96C1551.34 1348.47 1545.36 1345.06 1544.44 1344.16C1542.72 1342.47 1528.13 1333.63 1527.06 1333.63C1526.46 1333.63 1523.38 1331.75 1520.19 1329.45C1514.74 1325.52 1497.53 1315.73 1478.87 1305.95C1474.37 1303.59 1469.86 1301.04 1468.86 1300.28C1467.85 1299.53 1464.99 1298.31 1462.48 1297.56C1459.98 1296.82 1455.47 1294.45 1452.47 1292.3C1449.46 1290.15 1439.63 1284.21 1430.61 1279.1C1421.59 1273.99 1408.89 1266.5 1402.38 1262.45C1395.87 1258.41 1386.85 1253.1 1382.35 1250.65C1364.45 1240.95 1341.22 1228.06 1338.64 1226.4C1337.13 1225.43 1333.85 1223.68 1331.35 1222.49C1328.85 1221.31 1326.39 1219.89 1325.89 1219.32C1323.71 1216.89 1307.14 1208.96 1305.84 1209.73C1305.06 1210.2 1304 1209.55 1303.49 1208.27C1302.01 1204.54 1279.91 1192.54 1274.44 1192.49C1271.68 1192.47 1269.79 1192.1 1270.23 1191.67C1271.55 1190.4 1263.66 1183.32 1253.58 1176.75C1239.1 1167.31 1234.82 1163.75 1234.84 1161.15C1234.84 1159.83 1238.94 1154.55 1243.94 1149.4C1248.94 1144.25 1253.04 1139.31 1253.04 1138.41C1253.04 1137.52 1254.13 1136.79 1255.46 1136.79C1256.79 1136.79 1258.93 1134.91 1260.21 1132.59C1261.49 1130.28 1264.3 1127.51 1266.44 1126.43C1269.71 1124.77 1280.09 1117.39 1288.93 1110.41C1290.14 1109.46 1292.26 1108.68 1293.65 1108.68C1295.03 1108.68 1297.1 1106.68 1298.25 1104.25C1299.4 1101.81 1302.42 1099.06 1304.95 1098.13C1307.49 1097.2 1310.32 1094.52 1311.24 1092.18C1312.16 1089.84 1313.8 1087.4 1314.88 1086.75C1315.96 1086.11 1318.99 1081.48 1321.61 1076.48C1324.22 1071.47 1326.88 1066.98 1327.51 1066.5C1328.14 1066.01 1330.69 1062.66 1333.19 1059.04C1337.86 1052.26 1340.11 1050.8 1339.97 1054.63C1339.51 1066.51 1340.8 1080.56 1342.36 1080.56C1344.29 1080.56 1367.91 1095.64 1369.59 1097.95C1370.1 1098.64 1373.11 1100.23 1376.3 1101.47C1379.48 1102.71 1382.53 1104.84 1383.07 1106.2C1383.61 1107.56 1386.13 1108.68 1388.66 1108.68C1391.2 1108.68 1393.27 1109.47 1393.27 1110.43C1393.27 1111.4 1394.5 1112.19 1396 1112.19C1397.51 1112.19 1398.74 1112.78 1398.74 1113.51C1398.74 1114.24 1405.23 1118.65 1413.16 1123.31C1421.1 1127.97 1428.04 1132.92 1428.59 1134.29C1429.13 1135.67 1431.66 1136.79 1434.19 1136.79C1436.73 1136.79 1438.8 1137.46 1438.8 1138.27C1438.8 1139.09 1442.7 1141.64 1447.45 1143.96C1452.21 1146.27 1456.51 1148.61 1457.02 1149.15C1459.03 1151.32 1482.55 1164.91 1484.29 1164.91C1485.32 1164.91 1486.16 1165.63 1486.16 1166.51C1486.16 1167.39 1490.05 1170.03 1494.81 1172.38C1508.17 1178.97 1515.27 1183.24 1515.29 1184.68C1515.29 1185.41 1516.33 1186 1517.58 1186C1518.83 1186 1523.9 1188.77 1528.83 1192.15C1533.76 1195.54 1538.43 1198.31 1539.21 1198.31C1539.99 1198.31 1545.31 1201.47 1551.03 1205.34C1556.75 1209.2 1562.41 1212.37 1563.6 1212.37C1564.79 1212.37 1567.97 1214.34 1570.67 1216.76C1573.38 1219.18 1576.25 1221.15 1577.06 1221.15C1577.87 1221.15 1584.59 1224.93 1591.99 1229.55C1599.39 1234.17 1607.69 1239.04 1610.43 1240.38C1613.17 1241.71 1617.02 1244.26 1619 1246.04C1620.98 1247.82 1623.76 1249.27 1625.18 1249.27C1626.61 1249.27 1628.79 1250.46 1630.04 1251.91C1631.28 1253.36 1633.37 1254.54 1634.66 1254.54C1635.96 1254.54 1637.29 1255.22 1637.63 1256.03C1637.95 1256.86 1645.05 1261.4 1653.39 1266.14C1661.73 1270.88 1669.93 1275.54 1671.63 1276.51C1673.33 1277.48 1681.83 1282.42 1690.53 1287.49C1699.23 1292.57 1707.21 1296.72 1708.26 1296.72C1709.31 1296.72 1710.17 1297.33 1710.17 1298.08C1710.17 1298.83 1713.25 1301 1717 1302.91C1720.76 1304.82 1732.03 1311.17 1742.05 1317.03C1752.06 1322.89 1761.49 1328.26 1762.99 1328.97C1768.31 1331.47 1773.93 1334.85 1777.09 1337.46C1778.86 1338.91 1784.39 1342.29 1789.4 1344.97C1810.87 1356.47 1814.93 1358.85 1815.51 1360.26C1815.83 1361.08 1817.2 1361.75 1818.54 1361.75C1819.87 1361.75 1825.31 1364.52 1830.64 1367.9C1840.72 1374.31 1849.23 1375.73 1856.15 1372.15C1860.81 1369.75 1862.74 1371.49 1860.04 1375.66C1858.38 1378.23 1858.75 1379.94 1861.93 1384.33C1864.11 1387.34 1866.53 1389.82 1867.31 1389.84C1868.53 1389.86 1889.82 1402.29 1895.04 1406.02C1902.8 1411.56 1910.53 1418.7 1910.6 1420.37C1910.75 1423.94 1898.75 1445.96 1896.61 1446.03C1894.39 1446.1 1892.23 1456.11 1893.65 1459.73C1894.13 1460.94 1895.47 1461.92 1896.64 1461.92C1897.81 1461.92 1903.12 1464.69 1908.45 1468.07C1913.77 1471.46 1919.28 1474.22 1920.7 1474.22C1922.11 1474.22 1923.28 1474.82 1923.29 1475.54C1923.31 1476.27 1929.65 1480.03 1937.41 1483.89C1945.16 1487.76 1951.91 1491.4 1952.41 1491.98C1952.91 1492.56 1956.4 1494.43 1960.15 1496.14C1963.91 1497.84 1966.98 1499.93 1966.98 1500.79C1966.98 1501.64 1968.29 1502.34 1969.89 1502.34C1971.48 1502.34 1974.97 1503.8 1977.63 1505.59C1983.15 1509.3 1999.26 1518.03 2015.24 1525.98C2021.26 1528.96 2029.62 1533.56 2033.82 1536.18C2038.03 1538.8 2047.05 1543.74 2053.86 1547.15C2060.67 1550.56 2067.84 1554.53 2069.8 1555.97C2071.76 1557.41 2074.56 1558.58 2076.03 1558.58C2077.5 1558.58 2080 1559.7 2081.58 1561.06C2084.72 1563.77 2094.24 1568.99 2118.45 1581.31C2127.14 1585.73 2144.64 1595.07 2157.36 1602.08C2170.07 1609.09 2181.61 1614.82 2183 1614.82C2184.4 1614.82 2185.54 1615.42 2185.56 1616.14C2185.57 1616.87 2191.92 1620.62 2199.67 1624.49C2207.42 1628.36 2214.18 1631.91 2214.68 1632.4C2215.18 1632.88 2218.45 1634.65 2221.96 1636.34C2225.46 1638.03 2229.56 1640.15 2231.07 1641.05C2232.57 1641.95 2235.03 1643.13 2236.53 1643.67C2238.03 1644.2 2246.64 1648.94 2255.65 1654.2C2264.67 1659.46 2275.73 1665.46 2280.24 1667.54C2284.75 1669.61 2289.67 1672.02 2291.17 1672.89C2296.43 1675.92 2317.63 1687.29 2323.04 1689.99C2326.05 1691.48 2330.68 1694.16 2333.34 1695.94C2336 1697.73 2339.28 1699.18 2340.63 1699.19C2343.76 1699.21 2354.91 1709.22 2354.91 1712.03C2354.91 1713.2 2352.86 1716.29 2350.36 1718.89C2344.57 1724.92 2344.64 1725.82 2350.82 1724.69L2355.83 1723.76L2350.65 1726.12C2347.81 1727.42 2344.92 1729.36 2344.24 1730.42C2343.56 1731.49 2333.18 1739.11 2321.18 1747.36C2305.03 1758.46 2297.87 1762.36 2293.61 1762.4C2290.11 1762.43 2280.44 1758.73 2269.02 1753L2269.01 1753ZM1142.85 1420.08C1137.59 1417.21 1098.37 1394.84 1092.77 1391.52C1091.26 1390.63 1083.07 1386.08 1074.55 1381.41C1051.34 1368.68 1050.44 1368.15 1046.53 1364.83C1044.53 1363.13 1041.87 1361.75 1040.6 1361.75C1039.33 1361.75 1035.27 1359.77 1031.58 1357.36C1027.89 1354.94 1023.76 1352.96 1022.39 1352.96C1021.03 1352.96 1019.91 1352.32 1019.91 1351.53C1019.91 1350.75 1017.25 1348.75 1013.99 1347.1C1010.74 1345.45 1004.8 1342.18 1000.79 1339.83C996.783 1337.48 992.276 1335.07 990.773 1334.47C989.271 1333.87 986.811 1332.68 985.309 1331.83C983.806 1330.97 978.168 1327.81 972.779 1324.78C967.39 1321.76 962.063 1318.48 960.941 1317.49C959.818 1316.51 952.609 1312.42 944.92 1308.41C920.831 1295.85 894.426 1280.86 893.295 1279.09C892.697 1278.16 890.888 1277.4 889.272 1277.4C887.657 1277.4 885.042 1276.31 883.461 1274.97C881.878 1273.64 874.848 1269.57 867.836 1265.92C860.824 1262.28 851.563 1257.05 847.256 1254.29C842.949 1251.53 838.285 1249.28 836.891 1249.28C835.498 1249.28 833.905 1248.57 833.351 1247.7C832.796 1246.84 821.478 1240.39 808.201 1233.37C794.923 1226.35 779.962 1218.24 774.953 1215.35C765.324 1209.78 757.192 1205.28 746.723 1199.73C722.673 1186.97 718.431 1184.35 717.923 1181.9C717.421 1179.49 743.831 1157.78 757.812 1149.1C760.149 1147.66 764.307 1144.39 767.052 1141.86C769.798 1139.32 773.385 1136.75 775.024 1136.14C776.665 1135.53 778.935 1132.66 780.072 1129.75C781.209 1126.84 782.963 1124.73 783.974 1125.06C784.984 1125.38 787.875 1123.73 790.399 1121.38C794.877 1117.22 804.829 1112.2 808.588 1112.2C809.624 1112.2 812.092 1113.76 814.074 1115.68C817.669 1119.15 817.691 1119.14 821.309 1115.39C823.303 1113.32 826.224 1107.9 827.795 1103.33C831.976 1091.18 839.801 1085.45 846.795 1089.4C849.263 1090.79 849.216 1091 846.43 1091.05C844.676 1091.08 843.243 1092.32 843.243 1093.82C843.243 1097.85 850.418 1104.04 861.089 1109.21C866.291 1111.73 871.575 1114.67 872.831 1115.74C877.109 1119.38 951.542 1165.88 969.251 1175.97C978.955 1181.5 987.97 1187.04 989.286 1188.27C990.602 1189.51 1009.64 1201.56 1031.6 1215.06C1053.56 1228.56 1076.92 1242.96 1083.51 1247.06C1090.1 1251.16 1097.54 1255.5 1100.04 1256.69C1102.55 1257.89 1110.23 1262.45 1117.12 1266.81C1124.01 1271.18 1131.53 1275.94 1133.83 1277.39C1136.13 1278.84 1147.92 1285.96 1160.03 1293.21C1172.14 1300.46 1190.89 1311.92 1201.71 1318.69C1212.52 1325.46 1225.42 1333.42 1230.37 1336.39C1254.51 1350.88 1258.49 1353.39 1258.49 1354.13C1258.49 1354.57 1257.67 1354.45 1256.66 1353.84C1255.65 1353.24 1253.63 1353.77 1252.17 1355.06C1246.06 1360.37 1243.97 1361.76 1242.09 1361.76C1241 1361.76 1238.3 1363.54 1236.1 1365.71C1233.89 1367.89 1230.86 1369.93 1229.36 1370.24C1225.8 1371 1215.4 1378.66 1208.11 1385.91C1204.94 1389.06 1201.37 1391.64 1200.17 1391.64C1198.98 1391.64 1195.02 1393.81 1191.36 1396.47C1183.32 1402.32 1179.29 1404.8 1171.53 1408.67C1165.67 1411.59 1163.08 1415.8 1168.34 1413.85C1169.85 1413.29 1171.07 1413.15 1171.07 1413.52C1171.07 1414.38 1151.05 1423.3 1149.45 1423.16C1148.82 1423.09 1145.85 1421.72 1142.84 1420.08L1142.85 1420.08ZM839.031 1092.53C838.452 1091.13 838.018 1091.54 837.93 1093.59C837.857 1095.45 838.295 1096.48 838.885 1095.9C839.491 1095.32 839.556 1093.8 839.031 1092.53V1092.53ZM1247.57 1367.9C1249.93 1365.48 1252.26 1363.51 1252.76 1363.51C1253.26 1363.51 1251.75 1365.49 1249.4 1367.9C1247.05 1370.32 1244.71 1372.3 1244.21 1372.3C1243.71 1372.3 1245.22 1370.32 1247.57 1367.9ZM1864.99 1365.37C1864.99 1361.13 1866 1360.7 1867.44 1364.33C1868.01 1365.75 1867.7 1367.38 1866.73 1367.95C1865.77 1368.52 1864.99 1367.36 1864.99 1365.37V1365.37ZM1254.86 1359.99C1254.86 1359.03 1255.73 1358.24 1256.79 1358.24C1257.85 1358.24 1258.21 1359.03 1257.59 1359.99C1256.97 1360.96 1256.1 1361.75 1255.66 1361.75C1255.22 1361.75 1254.86 1360.96 1254.86 1359.99ZM678.769 1159.78C673.95 1157.05 668.195 1153.3 665.981 1151.44C659.56 1146.05 645.153 1136.8 643.189 1136.8C642.201 1136.8 641.12 1136.14 640.786 1135.35C640.45 1134.55 633.732 1129.6 625.853 1124.36C617.974 1119.12 605.27 1110.65 597.623 1105.54C589.976 1100.43 579.268 1093.31 573.829 1089.72C568.389 1086.13 562.17 1082.01 560.009 1080.56C557.849 1079.11 548.982 1073.26 540.304 1067.55C531.627 1061.85 524.528 1056.57 524.528 1055.81C524.528 1055.05 522.696 1053.87 520.457 1053.19C516.568 1052 498.948 1040.19 493.891 1035.39C492.567 1034.14 490.687 1033.11 489.714 1033.11C488.74 1033.11 485.733 1031.13 483.033 1028.71C480.332 1026.3 477.471 1024.32 476.674 1024.32C475.878 1024.32 467.025 1018.59 457.002 1011.58C446.978 1004.57 437.377 998.03 435.665 997.043C424.343 990.518 396.229 971.265 395.521 969.55C395.185 968.742 394.086 968.08 393.076 968.08C392.065 968.08 389.36 966.696 387.064 965.004C384.768 963.312 381.063 960.742 378.83 959.292C376.598 957.844 371.882 954.481 368.352 951.823C364.821 949.166 361.381 946.99 360.705 946.99C360.03 946.99 357.845 945.606 355.848 943.914C353.852 942.222 350.943 940.048 349.385 939.081C340.131 933.34 306.735 911.085 305.974 910.151C305.473 909.536 302.409 907.247 299.164 905.059L293.264 901.083L299.692 895.4C303.228 892.274 309.161 888.215 312.877 886.379C316.594 884.545 323.732 880.097 328.74 876.498C333.749 872.899 339.965 869.03 342.554 867.9C345.143 866.77 348.673 863.542 350.398 860.725C352.122 857.906 354.717 855.602 356.163 855.602C357.609 855.602 358.791 854.994 358.791 854.246C358.791 853.502 362.479 850.949 366.987 848.572C371.495 846.197 375.183 843.762 375.183 843.164C375.183 842.566 378.666 840.689 382.923 838.992C387.18 837.297 392.087 835.199 393.826 834.332C400.948 830.78 406.932 832.98 429.583 847.477C442.235 855.573 455.046 863.492 458.051 865.073C465.351 868.915 469.185 871.231 479.455 878.009C484.215 881.149 488.401 883.721 488.757 883.721C489.114 883.721 496.692 888.331 505.6 893.965C514.507 899.6 527.123 907.145 533.634 910.732C549.421 919.431 552.589 921.306 553.668 922.59C554.169 923.188 559.496 926.68 565.506 930.353C571.516 934.026 576.707 937.691 577.041 938.496C577.376 939.3 578.37 939.958 579.254 939.958C582.103 939.958 616.44 960.577 646.919 980.591C652.63 984.341 657.831 987.409 658.477 987.409C659.122 987.409 662.224 989.187 665.37 991.364C668.515 993.538 672.74 996.183 674.757 997.24C684.131 1002.15 692.226 1006.93 704.834 1015C712.347 1019.81 720.722 1024.86 723.445 1026.23C737.714 1033.38 777.143 1057.48 781.606 1061.78C784.764 1064.81 787.638 1066.21 789.048 1065.39C790.448 1064.58 790.28 1065.39 788.614 1067.48C784.47 1072.65 782.591 1073.51 779.97 1071.41C776.375 1068.53 768.58 1072.51 768.58 1077.22C768.58 1080.53 769.298 1080.86 774.409 1079.87C777.614 1079.25 780.892 1077.77 781.693 1076.57C783.743 1073.52 786.729 1078.22 786.765 1084.55C786.785 1088.15 785.598 1089.87 782.24 1091.1C779.735 1092.02 777.686 1093.67 777.686 1094.77C777.686 1099.12 761.114 1120.62 756.281 1122.56C753.512 1123.66 748.747 1126.82 745.691 1129.58C742.636 1132.33 738.135 1135.2 735.69 1135.95C730.771 1137.45 718.045 1144.89 714.454 1148.35C713.189 1149.57 709.278 1151.49 705.763 1152.61C702.247 1153.73 699.371 1155.75 699.371 1157.1C699.371 1159.05 690.383 1165.2 688.079 1164.83C687.78 1164.79 683.59 1162.5 678.771 1159.78L678.769 1159.78ZM704.834 1155.39C707.338 1153.93 710.616 1152.74 712.119 1152.73C714.547 1152.73 714.547 1152.87 712.119 1154.21C710.616 1155.03 707.338 1156.23 704.834 1156.87L700.281 1158.04L704.834 1155.39ZM747.634 1136.8C749.447 1134.86 751.34 1133.28 751.841 1133.28C752.342 1133.28 751.268 1134.86 749.455 1136.8C747.642 1138.73 745.749 1140.31 745.248 1140.31C744.747 1140.31 745.821 1138.73 747.634 1136.8V1136.8ZM1061.83 1109.22C1061.8 1105.93 1065.55 1104.54 1067.88 1106.98C1069.52 1108.69 1069.44 1108.88 1067.52 1107.83C1066.05 1107.02 1064.39 1107.45 1063.45 1108.89C1062.4 1110.48 1061.85 1110.59 1061.83 1109.21L1061.83 1109.22ZM806.825 1106.92C806.825 1105.96 807.646 1105.17 808.648 1105.17C809.651 1105.17 810.468 1105.96 810.468 1106.92C810.468 1107.89 809.647 1108.68 808.648 1108.68C807.646 1108.68 806.825 1107.89 806.825 1106.92ZM1066.08 1098.94C1065.48 1097.45 1061.91 1094.71 1058.14 1092.85C1053.59 1090.61 1050.59 1087.56 1049.23 1083.81C1048.11 1080.7 1045.81 1076.68 1044.13 1074.89C1041.26 1071.82 1041.26 1071.69 1044.15 1072.76C1045.85 1073.39 1047.23 1074.66 1047.23 1075.58C1047.23 1076.5 1047.86 1076.88 1048.62 1076.42C1049.38 1075.97 1051.59 1076.71 1053.52 1078.08C1055.45 1079.44 1056.51 1080.56 1055.87 1080.56C1055.22 1080.56 1056.59 1082.54 1058.91 1084.95C1061.23 1087.37 1064.43 1089.35 1066 1089.35C1070.13 1089.35 1071.61 1092.57 1068.91 1095.71C1067.02 1097.9 1067.08 1098.69 1069.2 1100C1071.11 1101.16 1071.18 1101.6 1069.49 1101.62C1068.21 1101.64 1066.68 1100.43 1066.08 1098.94L1066.08 1098.94ZM1057.67 1086.53C1057.06 1085.94 1055.49 1085.88 1054.18 1086.38C1052.72 1086.95 1053.16 1087.36 1055.28 1087.45C1057.2 1087.52 1058.28 1087.13 1057.67 1086.52L1057.67 1086.53ZM812.918 1088.39C812.323 1086.9 812.349 1085.19 812.99 1084.58C813.614 1083.98 814.125 1084.73 814.125 1086.27C814.125 1087.8 815.149 1089.45 816.4 1089.94C818.183 1090.63 818.172 1090.86 816.363 1090.97C815.08 1091.04 813.545 1089.89 812.95 1088.4L812.918 1088.39ZM1076.52 1088.32C1076.59 1086.27 1077.04 1085.86 1077.62 1087.26C1078.14 1088.53 1078.08 1090.04 1077.47 1090.63C1076.87 1091.21 1076.44 1090.17 1076.52 1088.32V1088.32ZM791.648 1086.42C790.981 1085.77 790.434 1084.1 790.434 1082.69C790.434 1080.61 790.952 1080.54 793.165 1082.32C794.667 1083.52 795.896 1085.2 795.896 1086.04C795.896 1087.87 793.377 1088.08 791.646 1086.42H791.648ZM819.718 1084.81C819.791 1082.76 820.236 1082.34 820.819 1083.74C821.344 1085.01 821.282 1086.53 820.673 1087.11C820.068 1087.7 819.638 1086.66 819.718 1084.81V1084.81ZM840.378 1080.35C837.462 1071.93 841.265 1062.92 847.697 1063.01C848.758 1063.03 848.462 1063.75 847.044 1064.61C845.461 1065.58 844.565 1068.8 844.721 1072.94C845.05 1081.73 842.417 1086.24 840.378 1080.35V1080.35ZM1074.55 1082.32C1072.22 1080.86 1072.29 1080.61 1075.01 1080.59C1076.76 1080.57 1078.2 1081.35 1078.2 1082.32C1078.2 1084.46 1077.98 1084.46 1074.55 1082.32ZM809.016 1065C807.091 1063.82 807.102 1063.19 809.089 1061.6C810.977 1060.09 811.586 1060.42 811.794 1063.08C812.086 1066.98 812.17 1066.93 809.016 1065ZM847.804 1057.71C848.424 1056.75 849.7 1055.96 850.645 1055.96C851.589 1055.96 852.358 1056.75 852.358 1057.71C852.358 1058.68 851.082 1059.47 849.518 1059.47C847.957 1059.47 847.184 1058.68 847.804 1057.71ZM857.029 1050.87C856.474 1050 857.211 1048.86 858.651 1048.32C860.405 1047.67 860.941 1048.21 860.266 1049.89C859.092 1052.84 858.425 1053.05 857.029 1050.87ZM1028.08 1047.13C1026.22 1045.15 1023.62 1043.93 1022.31 1044.41C1020.99 1044.9 1019.9 1044.34 1019.88 1043.16C1019.85 1041.05 1003.57 1030.82 976.789 1016.08C973.606 1014.33 959.025 1005.78 944.387 997.082C907.465 975.139 904.449 973.417 902.87 973.385C902.104 973.367 899.84 975.924 897.842 979.067L894.207 984.78L895.363 979.067C896.792 972.019 895.217 971.722 891.651 978.367C890.175 981.124 886.774 984.763 884.095 986.457C881.415 988.152 879.806 988.628 880.515 987.52C881.226 986.411 880.697 984.222 879.373 982.658C877.463 980.423 877.43 979.654 879.228 979.074C880.478 978.666 881.503 976.094 881.503 973.355C881.503 970.615 882.272 968.112 883.213 967.789C884.154 967.467 885.255 965.225 885.659 962.81C886.064 960.392 887.344 956.19 888.504 953.469C889.663 950.748 890.611 946.596 890.611 944.243C890.611 941.889 891.431 939.963 892.43 939.963C893.433 939.963 894.254 938.515 894.254 936.741C894.254 934.967 894.866 932.926 895.617 932.202C896.908 930.957 900.571 918.505 902.771 907.889C903.321 905.232 904.419 903.056 905.21 903.056C907.092 903.056 910.645 893.122 910.645 887.856C910.645 885.585 911.374 883.724 912.264 883.724C913.154 883.724 914.39 881.152 915.006 878.012C915.622 874.872 917.413 869.929 918.978 867.031C920.546 864.134 922.972 857.023 924.372 851.233C925.772 845.442 928.174 839.817 929.709 838.734C931.532 837.446 932.502 833.896 932.502 828.501C932.502 820.712 936.857 804.11 939.914 800.24C941.625 798.073 939.083 784.256 935.409 775.774C931.016 765.628 931.953 743.002 937.247 731.453C939.646 726.22 941.608 720.908 941.608 719.649C941.608 716.53 949.781 712.529 953.406 713.872C958.644 715.81 962.166 727.111 960.874 737.824C959.605 748.326 959.284 749.528 950.789 775.489C944.524 794.637 945 796.64 955.384 794.809C964.466 793.207 966.383 797.22 961.935 808.516C959.918 813.633 957.358 817.611 956.242 817.357C955.127 817.107 952.812 819.274 951.099 822.179C949.385 825.087 946.958 827.468 945.706 827.474C944.455 827.474 943.43 828.673 943.43 830.121C943.43 831.57 942.333 832.757 940.991 832.757C937.289 832.757 934.38 844.162 933.592 861.755C933.067 873.525 933.337 876.448 934.708 873.178C940.719 858.71 944.269 852.154 946.553 851.309C947.975 850.783 952.977 852.41 957.668 854.931C976.831 865.223 999.875 878.953 1001.86 881.262C1003.02 882.617 1005.11 883.722 1006.48 883.722C1007.86 883.722 1012.88 886.394 1017.64 889.663C1022.4 892.931 1031.08 898.184 1036.93 901.34C1042.78 904.494 1047.98 908.149 1048.51 909.459C1049.03 910.768 1050.56 911.841 1051.91 911.841C1053.26 911.841 1057.21 913.623 1060.68 915.796C1064.16 917.97 1071.49 922.372 1076.97 925.577C1082.46 928.781 1087.39 933.041 1087.94 935.043C1090.32 943.831 1078.38 968.512 1067 978.321C1059 985.215 1058.17 986.645 1058.17 993.596C1058.17 997.814 1057.35 1001.75 1056.35 1002.35C1055.35 1002.95 1054.53 1004.97 1054.53 1006.85C1054.53 1008.73 1053.77 1010.26 1052.84 1010.26C1051.91 1010.26 1050.21 1014.61 1049.07 1019.93C1047.93 1025.24 1046.23 1029.59 1045.3 1029.59C1044.37 1029.59 1043.61 1031.57 1043.61 1033.99C1043.61 1036.4 1042.79 1038.38 1041.78 1038.38C1040.78 1038.38 1039.96 1039.43 1039.96 1040.71C1039.96 1041.99 1038.05 1044.77 1035.72 1046.89L1031.47 1050.73L1028.09 1047.13L1028.08 1047.13ZM874.212 997.959C874.212 996.993 875.033 996.203 876.036 996.203C877.038 996.203 877.855 996.993 877.855 997.959C877.855 998.925 877.035 999.715 876.036 999.715C875.033 999.715 874.212 998.925 874.212 997.959ZM874.212 990.929C874.212 988.998 874.858 987.413 875.645 987.413C876.433 987.413 877.202 988.994 877.352 990.929C877.498 992.86 876.856 994.445 875.919 994.445C874.978 994.445 874.212 992.864 874.212 990.929ZM856.11 945.665C853.667 943.44 849.596 941.119 847.064 940.506C844.534 939.894 840.796 937.869 838.759 936.013C836.72 934.153 832.596 931.397 829.591 929.885C824.039 927.091 810.312 918.734 784.059 902.167C776.046 897.111 766.825 891.663 763.57 890.061C760.314 888.459 757.651 886.378 757.651 885.436C757.651 884.496 756.28 883.723 754.607 883.723C752.933 883.723 750.269 882.632 748.688 881.298C747.107 879.964 740.076 875.893 733.064 872.252C726.052 868.611 716.791 863.375 712.483 860.618C708.176 857.86 704.365 855.604 704.015 855.604C703.665 855.604 698.174 852.428 691.813 848.55C685.452 844.67 677.993 840.638 675.238 839.59C672.484 838.542 670.23 837.101 670.23 836.386C670.23 835.67 665.927 832.913 660.668 830.257C655.409 827.6 647.418 823.171 642.911 820.415C638.403 817.658 629.483 812.389 623.089 808.703C616.695 805.016 608.499 800.259 604.876 798.131C601.253 796.003 597.053 793.63 595.541 792.858C594.029 792.086 584.855 786.908 575.153 781.35C565.451 775.792 557.099 771.245 556.593 771.245C556.086 771.245 552.148 768.959 547.84 766.168C543.533 763.374 537.14 759.508 533.634 757.573C511.021 745.094 493.813 735.24 489.642 732.38C486.984 730.556 484.367 729.065 483.828 729.065C481.628 729.065 457.659 714.038 452.501 709.424C449.448 706.695 446.329 704.46 445.571 704.46C444.813 704.46 439.218 701.098 433.138 696.991C427.059 692.883 416.522 685.963 409.723 681.613C402.925 677.264 392.278 670.344 386.065 666.236C379.852 662.127 374.373 658.766 373.891 658.766C373.024 658.766 357.762 649.33 324.187 628.035C314.671 621.999 299.099 612.49 289.583 606.904C275.079 598.39 231.49 571.113 200.742 551.309C196.456 548.548 192.601 546.289 192.176 546.289C191.751 546.289 182.554 540.375 171.74 533.146C160.925 525.917 148.594 518.264 144.336 516.139C140.079 514.014 136.596 511.624 136.596 510.828C136.596 510.034 135.863 509.383 134.968 509.383C134.072 509.383 126.854 505.231 118.928 500.157C105.27 491.413 102.149 489.55 92.4297 484.34C90.176 483.131 87.9222 481.747 87.4214 481.264C85.5046 479.415 64.3599 465.699 58.2808 462.362C54.7747 460.438 44.1204 454.015 34.6042 448.09C25.088 442.165 13.4091 435.329 8.65106 432.899C3.89296 430.471 0 427.257 0 425.761C0 422.199 14.5221 410.552 37.3362 395.815C41.343 393.225 45.0317 390.633 45.5333 390.053C46.035 389.473 49.1084 387.649 52.3631 386.004C57.3304 383.49 58.2808 383.422 58.2808 385.564C58.2808 386.97 58.9897 388.117 59.8564 388.117C60.7231 388.117 66.255 391.279 72.1499 395.143C78.0449 399.007 83.8926 402.171 85.1447 402.173C86.3968 402.173 87.4214 402.781 87.4214 403.518C87.4214 404.254 88.951 405.638 90.8204 406.593C106.061 414.372 112.876 418.181 115.027 420.122C116.407 421.367 121.415 424.349 126.156 426.745C130.896 429.141 134.774 431.711 134.774 432.456C134.774 433.2 135.799 433.812 137.051 433.812C138.303 433.813 144.192 437.074 150.136 441.054C156.081 445.036 163.867 449.928 167.438 451.925C173.313 455.208 177.35 457.407 196.464 467.725C199.683 469.463 208.108 474.603 215.187 479.148C230.401 488.917 230.205 488.799 247.694 498.712C255.206 502.971 261.626 507.113 261.96 507.917C262.296 508.722 263.446 509.38 264.52 509.38C265.595 509.38 269.16 511.358 272.443 513.774C275.726 516.192 278.903 518.167 279.503 518.167C280.103 518.167 286.1 521.601 292.829 525.801C299.558 529.999 308.342 535.308 312.349 537.598C316.356 539.887 320.717 542.78 322.041 544.024C323.364 545.269 325.105 546.288 325.908 546.288C327.779 546.288 353.428 561.052 364.692 568.613C369.44 571.8 374.562 574.407 376.075 574.407C377.588 574.407 378.826 575.595 378.826 577.043C378.826 578.492 379.85 579.683 381.102 579.69C382.354 579.69 391.498 584.836 401.421 591.113C411.345 597.391 420.068 602.527 420.807 602.527C421.546 602.527 428.723 606.821 436.756 612.069C444.789 617.317 453.998 623.051 457.221 624.81C463.01 627.972 464.616 628.91 473.532 634.341C476.036 635.868 484.027 640.495 491.289 644.626C498.552 648.758 504.494 652.839 504.494 653.694C504.494 654.549 505.698 655.25 507.17 655.25C510.634 655.25 519.568 641.873 540.942 604.683C542.457 602.047 545.94 596.034 548.682 591.321C551.424 586.608 553.668 582.004 553.668 581.09C553.668 579.284 558.226 574.407 559.913 574.407C560.485 574.407 560.953 576.385 560.953 578.801C560.953 581.218 561.686 583.194 562.581 583.194C563.517 583.194 563.564 585.995 562.69 589.785C560.462 599.465 559.279 615.759 560.662 617.712C561.322 618.646 565.141 621.301 569.147 623.616C573.154 625.93 576.842 628.261 577.343 628.795C577.844 629.328 579.604 630.559 581.255 631.525C582.905 632.49 587.823 635.682 592.182 638.616C596.542 641.548 602.773 645.007 606.028 646.298C609.284 647.589 611.947 649.249 611.947 649.986C611.947 650.723 613.382 651.792 615.134 652.361C619.407 653.748 638.586 664.958 641.088 667.528C642.695 669.18 657.362 678.097 658.472 678.097C659.061 678.097 662.23 680.074 665.513 682.49C668.796 684.908 672.839 686.884 674.498 686.884C676.156 686.884 677.513 687.524 677.513 688.304C677.513 689.087 686.083 694.641 696.557 700.65C707.031 706.659 716.095 712.347 716.699 713.289C717.302 714.233 719.129 715.002 720.759 715.002C722.388 715.002 725.413 716.476 727.481 718.275C729.549 720.074 736.803 724.454 743.601 728.007C750.4 731.558 762.016 738.391 769.415 743.188C776.815 747.984 783.683 751.909 784.677 751.909C785.673 751.909 786.759 752.503 787.095 753.229C787.919 755.017 802.694 764.213 804.742 764.213C805.643 764.213 807.469 765.483 808.804 767.032C810.139 768.584 813.137 770.551 815.469 771.407C821.132 773.485 858.568 796.121 859.339 797.935C859.667 798.718 861.078 799.362 862.464 799.362C864.549 799.362 883.156 809.845 889.692 814.703C890.695 815.447 893.897 817.243 896.809 818.694C899.722 820.142 902.481 822.714 902.94 824.405C903.4 826.097 904.909 827.481 906.295 827.481C909.733 827.481 909.576 837.04 906.076 840.411C904.574 841.859 903.345 845.318 903.345 848.093C903.345 850.869 902.689 853.891 901.887 854.81C900.461 856.444 896.037 867.054 889.469 884.598C885.619 894.882 883.212 897.623 876.443 899.427C871.401 900.772 871.166 901.638 873.081 911.839C873.533 914.257 873.975 918.407 874.055 921.066C874.164 924.127 875.207 925.898 876.935 925.898C878.882 925.898 879.659 927.791 879.641 932.489C879.604 941.108 877.562 943.919 871.866 943.199C868.924 942.827 865.986 943.914 863.878 946.157L860.546 949.704L856.102 945.659L856.11 945.665ZM877.243 938.966C878.789 935.075 875.504 932.558 869.755 933.235L864.853 933.81L868.693 937.765C873.207 942.414 875.731 942.768 877.243 938.967V938.966ZM1715.15 915.358C1712.6 913.423 1709.27 911.843 1707.75 911.843C1706.24 911.843 1702.56 909.865 1699.58 907.45C1696.61 905.032 1693.27 903.055 1692.16 903.055C1691.05 903.055 1690.15 901.786 1690.15 900.23C1690.15 898.442 1689.14 897.776 1687.41 898.417C1685.91 898.975 1684.68 898.631 1684.68 897.648C1684.68 896.668 1683.66 896.028 1682.41 896.221C1679.31 896.704 1673.76 894.236 1673.76 892.373C1673.76 891.539 1675.19 891.379 1676.94 892.012C1679.74 893.021 1679.82 892.795 1677.63 890.198C1676.26 888.568 1675.69 887.234 1676.36 887.234C1678.5 887.234 1689.04 892.884 1694.87 897.16C1697.97 899.434 1701.08 901.293 1701.77 901.293C1702.45 901.293 1705.42 903.664 1708.36 906.565C1711.3 909.466 1714.93 911.838 1716.43 911.838C1717.93 911.838 1720.04 913.418 1721.11 915.353C1722.18 917.285 1722.32 918.869 1721.4 918.869C1720.5 918.869 1717.68 917.288 1715.13 915.353L1715.15 915.358ZM912.459 794.792C912.459 794.27 913.688 792.657 915.19 791.207C917.56 788.921 917.921 788.911 917.921 791.135C917.921 792.552 916.693 794.164 915.19 794.72C913.688 795.278 912.459 795.307 912.459 794.792V794.792ZM925.513 764.128C926.578 761.177 927.789 759.091 928.201 759.49C929.101 760.359 925.667 769.49 924.436 769.49C923.962 769.49 924.455 767.075 925.512 764.128H925.513ZM1038.03 519.835C1036.58 518.951 1033.87 518.215 1032.02 518.2C1030.16 518.183 1027.18 516.391 1025.4 514.209C1023.63 512.028 1019 509.148 1015.12 507.809C1009.58 505.892 996.26 498.375 990.891 494.13C989.465 493.003 990.927 476.916 992.612 475.286C995.726 472.26 1005.3 474.023 1012.13 478.881C1015.91 481.566 1019.34 483.991 1019.76 484.272C1020.18 484.558 1020.02 485.273 1019.39 485.87C1018.77 486.468 1016.88 485.62 1015.18 483.982C1012.69 481.571 1011.78 481.446 1010.4 483.335C1009.07 485.169 1008.51 485.195 1007.78 483.442C1007.27 482.226 1006.16 481.647 1005.32 482.151C1004.48 482.655 1003.26 481.471 1002.62 479.526C1001.15 475.037 998.76 474.977 997.562 479.418C997.011 481.45 998.032 484.054 1000.08 485.842C1001.98 487.498 1003.53 488.267 1003.53 487.552C1003.53 486.836 1006.6 488.585 1010.36 491.432C1014.11 494.279 1020.05 498.008 1023.56 499.716C1032.17 503.907 1047.24 514.598 1047.24 516.513C1047.24 519.242 1040.84 521.558 1038.03 519.843L1038.03 519.835ZM1046.32 502.356C1046.94 501.391 1047.81 500.6 1048.25 500.6C1048.69 500.6 1049.05 501.391 1049.05 502.356C1049.05 503.322 1048.19 504.112 1047.13 504.112C1046.06 504.112 1045.7 503.322 1046.32 502.356ZM1029.02 491.708C1029.02 490.685 1029.84 490.335 1030.84 490.932C1031.85 491.529 1032.66 492.366 1032.66 492.792C1032.66 493.217 1031.84 493.568 1030.84 493.568C1029.84 493.568 1029.02 492.731 1029.02 491.708Z" fill="#072E68"/>
<path d="M2345.8 1724.54C2345.8 1724.04 2347.85 1721.5 2350.36 1718.89C2352.86 1716.29 2354.91 1713.2 2354.91 1712.03C2354.91 1709.23 2343.75 1699.2 2340.62 1699.19C2339.27 1699.19 2335.99 1697.72 2333.34 1695.95C2330.68 1694.17 2326.04 1691.49 2323.04 1689.99C2317.63 1687.3 2296.43 1675.92 2291.17 1672.89C2289.66 1672.02 2284.75 1669.62 2280.24 1667.54C2275.73 1665.46 2264.67 1659.46 2255.65 1654.2C2246.64 1648.95 2238.03 1644.21 2236.53 1643.67C2235.02 1643.13 2232.57 1641.95 2231.06 1641.05C2229.56 1640.15 2225.46 1638.03 2221.96 1636.34C2218.45 1634.66 2215.17 1632.89 2214.67 1632.4C2214.17 1631.92 2207.42 1628.36 2199.67 1624.49C2191.91 1620.63 2185.56 1616.87 2185.55 1616.14C2185.53 1615.42 2184.39 1614.82 2183 1614.82C2181.61 1614.82 2170.07 1609.09 2157.35 1602.08C2144.64 1595.08 2127.13 1585.73 2118.45 1581.31C2094.23 1568.99 2084.72 1563.77 2081.57 1561.06C2079.99 1559.7 2077.5 1558.59 2076.03 1558.59C2074.56 1558.59 2071.75 1557.41 2069.79 1555.97C2067.84 1554.53 2060.66 1550.57 2053.85 1547.15C2047.04 1543.74 2038.03 1538.8 2033.82 1536.18C2029.61 1533.56 2021.25 1528.97 2015.24 1525.98C1999.26 1518.03 1983.15 1509.3 1977.62 1505.59C1974.97 1503.81 1971.48 1502.35 1969.88 1502.35C1968.29 1502.35 1966.98 1501.65 1966.98 1500.79C1966.98 1499.94 1963.9 1497.84 1960.15 1496.14C1956.39 1494.44 1952.91 1492.56 1952.41 1491.98C1951.91 1491.4 1945.15 1487.76 1937.4 1483.89C1929.65 1480.03 1923.3 1476.27 1923.29 1475.55C1923.27 1474.82 1922.11 1474.23 1920.69 1474.23C1919.28 1474.23 1913.77 1471.46 1908.44 1468.08C1903.12 1464.69 1897.81 1461.93 1896.64 1461.93C1895.47 1461.93 1894.13 1460.94 1893.65 1459.73C1892.22 1456.11 1894.38 1446.11 1896.61 1446.03C1898.74 1445.96 1910.74 1423.95 1910.6 1420.37C1910.52 1418.7 1902.79 1411.56 1895.03 1406.02C1889.82 1402.29 1868.52 1389.87 1867.3 1389.84C1866.53 1389.82 1864.11 1387.35 1861.93 1384.34C1858.75 1379.94 1858.38 1378.23 1860.04 1375.66C1862.74 1371.49 1860.81 1369.75 1856.15 1372.15C1849.23 1375.73 1840.72 1374.31 1830.63 1367.9C1825.31 1364.52 1819.86 1361.75 1818.53 1361.75C1817.2 1361.75 1815.84 1361.08 1815.5 1360.26C1814.93 1358.85 1810.87 1356.47 1789.4 1344.97C1784.39 1342.29 1778.85 1338.91 1777.09 1337.46C1773.93 1334.86 1768.31 1331.47 1762.99 1328.97C1761.49 1328.27 1752.06 1322.89 1742.04 1317.03C1732.03 1311.18 1720.76 1304.82 1717 1302.91C1713.24 1301 1710.17 1298.83 1710.17 1298.08C1710.17 1297.33 1709.31 1296.72 1708.26 1296.72C1707.21 1296.72 1699.23 1292.57 1690.53 1287.5C1681.83 1282.42 1673.32 1277.48 1671.63 1276.51C1669.93 1275.55 1661.72 1270.88 1653.39 1266.14C1645.05 1261.4 1637.96 1256.86 1637.62 1256.04C1637.29 1255.22 1635.96 1254.54 1634.66 1254.54C1633.36 1254.54 1631.28 1253.36 1630.03 1251.91C1628.79 1250.46 1626.6 1249.27 1625.18 1249.27C1623.76 1249.27 1620.98 1247.82 1619 1246.04C1617.02 1244.26 1613.16 1241.71 1610.42 1240.38C1607.69 1239.05 1599.39 1234.17 1591.99 1229.55C1584.59 1224.93 1577.87 1221.16 1577.06 1221.16C1576.24 1221.16 1573.37 1219.18 1570.67 1216.76C1567.97 1214.34 1564.78 1212.37 1563.59 1212.37C1562.4 1212.37 1556.75 1209.2 1551.03 1205.34C1545.31 1201.47 1539.99 1198.31 1539.21 1198.31C1538.43 1198.31 1533.75 1195.54 1528.82 1192.16C1523.89 1188.77 1518.83 1186.01 1517.58 1186.01C1516.32 1186.01 1515.29 1185.41 1515.28 1184.69C1515.26 1183.24 1508.16 1178.97 1494.8 1172.38C1490.05 1170.04 1486.15 1167.4 1486.15 1166.51C1486.15 1165.64 1485.31 1164.91 1484.29 1164.91C1482.55 1164.91 1459.02 1151.32 1457.01 1149.15C1456.51 1148.61 1452.21 1146.28 1447.45 1143.96C1442.69 1141.65 1438.8 1139.09 1438.8 1138.27C1438.8 1137.46 1436.72 1136.79 1434.19 1136.79C1431.65 1136.79 1429.13 1135.67 1428.58 1134.29C1428.04 1132.92 1421.1 1127.98 1413.16 1123.31C1405.22 1118.65 1398.73 1114.24 1398.73 1113.51C1398.73 1112.79 1397.5 1112.19 1396 1112.19C1394.5 1112.19 1393.27 1111.4 1393.27 1110.43C1393.27 1109.47 1391.19 1108.68 1388.66 1108.68C1386.12 1108.68 1383.61 1107.57 1383.06 1106.2C1382.52 1104.84 1379.48 1102.71 1376.29 1101.47C1373.11 1100.23 1370.09 1098.64 1369.58 1097.95C1367.91 1095.64 1344.29 1080.56 1342.35 1080.56C1340.8 1080.56 1339.51 1066.51 1339.96 1054.64C1340.11 1050.8 1337.86 1052.27 1333.18 1059.04C1330.69 1062.66 1328.13 1066.02 1327.5 1066.5C1326.87 1066.98 1324.22 1071.47 1321.6 1076.48C1318.98 1081.49 1315.96 1086.11 1314.88 1086.76C1313.79 1087.4 1312.15 1089.84 1311.23 1092.18C1310.31 1094.52 1307.48 1097.2 1304.95 1098.13C1302.41 1099.06 1299.4 1101.81 1298.25 1104.25C1297.1 1106.69 1295.03 1108.68 1293.64 1108.68C1292.26 1108.68 1290.13 1109.46 1288.93 1110.41C1280.08 1117.39 1269.71 1124.78 1266.44 1126.43C1264.29 1127.51 1261.49 1130.29 1260.21 1132.6C1258.93 1134.91 1256.79 1136.8 1255.46 1136.8C1254.12 1136.8 1253.03 1137.53 1253.03 1138.42C1253.03 1139.31 1248.94 1144.25 1243.94 1149.4C1231.13 1162.59 1230.78 1161.61 1253.7 1176.74C1260.58 1181.28 1267 1186.67 1267.97 1188.72C1269.11 1191.14 1271.43 1192.47 1274.59 1192.49C1279.78 1192.53 1302.01 1204.55 1303.4 1208.06C1303.86 1209.22 1302.25 1214.9 1299.82 1220.68C1288.92 1246.56 1267.64 1273.67 1253.34 1279.89C1246.53 1282.86 1245.82 1282.86 1239.58 1280C1232.98 1276.98 1231.88 1274.37 1232.94 1264.21C1233.68 1257.14 1240.12 1246.41 1249.13 1237.22C1260.59 1225.54 1261.69 1222.51 1256.68 1216.3C1254.54 1213.65 1247.68 1204.76 1241.43 1196.55C1230.68 1182.4 1229.74 1181.63 1223.8 1182.06C1219.99 1182.35 1208.23 1179.39 1193.97 1174.59C1180.71 1170.13 1167.13 1166.67 1162.88 1166.67C1157.94 1166.67 1151.82 1164.84 1145.18 1161.37C1133.54 1155.28 1123.43 1151.76 1089.21 1141.85C1074.21 1137.51 1061.15 1132.52 1055.51 1128.98C1039.59 1118.97 1029.73 1113.95 1025.98 1113.95C1023.99 1113.95 1020.38 1116.01 1017.95 1118.53C1011.7 1125.01 998.893 1133.28 995.105 1133.28C993.343 1133.28 989.119 1131.5 985.717 1129.32C979.558 1125.39 979.534 1125.32 980.521 1114.44C981.064 1108.44 980.813 1103.09 979.923 1102.57C978.22 1101.56 945.66 1099.27 889.711 1096.23C861.38 1094.7 854.08 1093.75 849.568 1091.07C839.894 1085.3 832.576 1089.42 827.788 1103.33C826.217 1107.89 823.298 1113.32 821.302 1115.39C817.685 1119.13 817.659 1119.13 814.067 1115.67C812.084 1113.76 809.615 1112.19 808.581 1112.19C804.766 1112.19 794.846 1117.23 790.427 1121.41C786.617 1125.02 785.061 1125.45 780.89 1124.07C776.862 1122.73 774.286 1123.29 767.456 1126.97C762.809 1129.48 757.993 1131.53 756.755 1131.53C755.516 1131.53 751.557 1133.79 747.957 1136.55C744.358 1139.31 734.615 1144.09 726.307 1147.18C717.999 1150.27 708.538 1153.93 705.282 1155.32C702.027 1156.7 699.363 1157.12 699.363 1156.24C699.363 1155.36 702.239 1153.73 705.754 1152.61C709.27 1151.49 713.181 1149.58 714.446 1148.36C718.037 1144.89 730.763 1137.46 735.682 1135.95C738.127 1135.21 742.628 1132.34 745.683 1129.58C748.739 1126.83 753.504 1123.67 756.272 1122.56C761.106 1120.63 777.678 1099.12 777.678 1094.78C777.678 1093.68 779.727 1092.03 782.231 1091.11C785.589 1089.87 786.777 1088.16 786.757 1084.56C786.72 1078.23 783.734 1073.53 781.685 1076.58C780.883 1077.77 777.606 1079.26 774.4 1079.87C769.291 1080.86 768.572 1080.53 768.572 1077.23C768.572 1072.28 776.381 1068.55 780.251 1071.65C782.435 1073.39 783.649 1072.99 786.805 1069.49C790.152 1065.78 792.142 1065.22 801.456 1065.41C809.981 1065.59 812.143 1065.09 811.802 1063.05C811.547 1061.63 813.009 1060.21 815.015 1059.89C820.623 1058.97 826.554 1055.73 827.646 1052.98C828.222 1051.53 827.828 1050.98 826.716 1051.65C824.882 1052.74 825.137 1049.4 828.04 1034.39C828.557 1031.71 832.28 1022.22 836.311 1013.3C840.342 1004.38 846.338 989.966 849.635 981.266C852.931 972.567 857.146 961.495 858.999 956.662C863.211 945.676 866.288 942.501 872.019 943.226C877.568 943.927 879.606 941.058 879.643 932.497C879.663 927.798 878.888 925.907 876.937 925.907C875.209 925.907 874.151 924.133 874.056 921.073C873.984 918.416 873.535 914.263 873.083 911.847C871.169 901.647 871.406 900.779 876.445 899.436C883.214 897.633 885.621 894.891 889.471 884.607C896.039 867.063 900.462 856.452 901.889 854.817C902.691 853.898 903.347 850.877 903.347 848.102C903.347 845.326 904.576 841.869 906.078 840.419C909.571 837.046 909.728 827.489 906.297 827.489C904.911 827.489 903.402 826.105 902.942 824.414C902.483 822.722 899.723 820.152 896.811 818.702C893.897 817.254 890.696 815.458 889.694 814.712C883.157 809.853 864.552 799.369 862.465 799.369C861.08 799.369 859.672 798.726 859.34 797.942C858.567 796.129 821.134 773.492 815.471 771.414C813.138 770.56 810.14 768.589 808.806 767.039C807.472 765.487 805.645 764.221 804.744 764.221C802.695 764.221 787.92 755.024 787.097 753.237C786.768 752.511 785.675 751.917 784.679 751.917C783.684 751.917 776.817 747.993 769.417 743.196C762.018 738.4 750.401 731.568 743.603 728.015C736.805 724.464 729.551 720.083 727.483 718.283C725.415 716.484 722.39 715.011 720.761 715.011C719.131 715.011 717.304 714.242 716.701 713.297C716.097 712.357 707.033 706.668 696.559 700.659C686.085 694.65 677.515 689.094 677.515 688.313C677.515 687.533 676.158 686.893 674.5 686.893C672.841 686.893 668.798 684.915 665.515 682.499C662.231 680.082 659.063 678.106 658.474 678.106C657.364 678.106 642.697 669.189 641.09 667.537C638.588 664.965 619.408 653.758 615.136 652.369C613.383 651.801 611.949 650.731 611.949 649.994C611.949 649.258 609.286 647.598 606.03 646.307C602.774 645.016 596.544 641.558 592.184 638.624C587.824 635.691 582.907 632.5 581.257 631.533C579.606 630.567 577.846 629.337 577.345 628.804C576.844 628.271 573.156 625.939 569.149 623.624C565.142 621.31 561.324 618.653 560.664 617.721C559.281 615.768 560.463 599.473 562.692 589.793C563.565 586.002 563.517 583.203 562.582 583.203C561.687 583.203 560.955 581.225 560.955 578.809C560.955 576.391 560.487 574.415 559.914 574.415C558.227 574.415 553.67 579.293 553.67 581.098C553.67 582.014 551.426 586.616 548.684 591.33C545.941 596.043 542.458 602.055 540.943 604.691C519.569 641.882 510.636 655.259 507.171 655.259C505.699 655.259 504.495 654.557 504.495 653.703C504.495 652.848 498.553 648.766 491.291 644.635C484.029 640.503 476.038 635.875 473.533 634.349C464.618 628.919 463.012 627.981 457.222 624.819C454 623.06 444.791 617.326 436.757 612.078C428.724 606.83 421.547 602.536 420.808 602.536C420.07 602.536 411.346 597.399 401.422 591.122C391.499 584.845 382.356 579.704 381.104 579.698C379.852 579.698 378.827 578.5 378.827 577.052C378.827 575.603 377.589 574.416 376.077 574.416C374.564 574.416 369.441 571.809 364.694 568.622C353.43 561.061 327.781 546.298 325.91 546.298C325.107 546.298 323.366 545.278 322.043 544.034C320.719 542.789 316.357 539.897 312.351 537.607C308.344 535.318 299.56 530.008 292.831 525.81C286.102 521.612 280.105 518.177 279.505 518.177C278.905 518.177 275.728 516.199 272.445 513.783C269.161 511.366 265.596 509.39 264.522 509.39C263.448 509.39 262.296 508.731 261.962 507.927C261.627 507.122 255.208 502.98 247.695 498.722C230.207 488.809 230.403 488.927 215.189 479.157C208.11 474.612 199.684 469.471 196.465 467.734C177.351 457.416 173.314 455.219 167.44 451.935C163.869 449.939 156.083 445.045 150.138 441.064C144.193 437.082 138.305 433.823 137.053 433.821C135.801 433.82 134.776 433.21 134.776 432.466C134.776 431.722 130.898 429.151 126.158 426.754C121.418 424.358 116.409 421.378 115.028 420.132C112.878 418.19 106.063 414.382 90.8222 406.603C88.9528 405.648 87.4232 404.264 87.4232 403.527C87.4232 402.79 86.3986 402.182 85.1465 402.182C83.8945 402.182 78.0467 399.017 72.1517 395.152C66.2568 391.288 60.7247 388.127 59.8582 388.127C55.4667 388.127 59.5046 381.269 67.0466 375.92C96.3188 355.16 117.038 344.191 126.979 344.191C130.515 344.191 137.482 347.338 146.437 352.978C154.11 357.811 160.667 361.765 161.01 361.765C161.353 361.765 175.875 369.791 193.281 379.6C210.688 389.409 229.437 399.936 234.947 402.992C255.63 414.467 433.436 517.466 454.41 530.123C466.431 537.377 486.101 548.849 498.121 555.618C510.141 562.386 525.295 571.362 531.795 575.564C538.295 579.766 545.068 583.204 546.845 583.204C549.014 583.204 551.642 579.878 554.833 573.099C557.449 567.541 562.846 556.271 566.826 548.055C591.91 496.274 622.878 416.646 622.878 403.927C622.878 399.733 620.869 397.819 608.789 390.506C601.039 385.814 592.434 380.889 589.665 379.56C584.816 377.231 582.53 370.552 586.583 370.552C587.656 370.552 589.605 369.565 590.913 368.357C592.221 367.148 595.161 364.973 597.447 363.524C604.583 358.997 634.574 330.132 632.141 330.132C630.871 330.132 625.194 333.176 619.525 336.897C613.857 340.617 605.121 346.125 600.112 349.136C595.104 352.147 588.925 356.418 586.381 358.627C574.163 369.24 574.245 369.199 569.933 366.972C564.151 363.986 534.47 345.272 448.946 290.69C407.877 264.478 361.719 235.148 346.374 225.511C310.2 202.792 265.499 174.31 263.176 172.501C262.175 171.721 251.93 165.156 240.41 157.913C228.891 150.67 219.056 144.343 218.555 143.853C216.675 142.015 169.786 112.321 157.542 105.216C138.356 94.0814 132.979 90.4165 132.99 88.4816C133.019 83.6523 177.753 49.7848 219.466 23.0126C246.963 5.36326 254.273 1.80526 265.819 0.447981C274.472 -0.567744 275.593 -0.23527 282.855 5.50608C287.13 8.88587 303.712 19.747 319.702 29.6396C359.054 53.9848 374.101 63.5062 375.185 64.7484C375.686 65.3206 383.881 70.3233 393.398 75.8619C402.914 81.4004 412.749 87.4213 415.253 89.241C419.449 92.2882 429.338 98.4596 458.053 115.943C464.063 119.603 471.029 124.108 473.534 125.954C477.553 128.919 509.738 148.932 567.329 184.281C577.346 190.429 595.787 201.922 608.308 209.821C620.829 217.72 631.904 224.494 632.918 224.873C635.187 225.721 683.536 256.54 684.802 257.944C685.303 258.499 687.351 259.89 689.355 261.038C698.003 265.981 722.638 280.714 735.504 288.638C743.178 293.365 752.325 298.989 755.831 301.137C759.337 303.286 773.92 311.676 788.237 319.784C802.555 327.892 817.717 336.652 821.931 339.251C826.145 341.847 831.642 345.083 834.146 346.438C836.651 347.794 842.798 351.323 847.806 354.281C852.815 357.239 862.649 362.934 869.661 366.937C876.673 370.939 886.098 376.527 890.606 379.354C895.113 382.183 901.67 386.112 905.176 388.088C908.684 390.066 912.78 392.438 914.283 393.364C915.785 394.291 928.488 401.663 942.512 409.747C981.105 431.994 1032.73 461.981 1040.41 466.611C1044.16 468.875 1050.31 472.575 1054.07 474.831C1057.82 477.088 1065.4 481.722 1070.91 485.13C1076.42 488.538 1090.69 497.17 1102.61 504.314C1114.54 511.457 1130.93 521.422 1139.04 526.457C1147.15 531.493 1155.83 536.684 1158.33 537.994C1170.56 544.386 1185.18 552.393 1189 554.787C1193.79 557.785 1195.16 558.542 1224.11 574.221C1235.52 580.396 1249.48 588.502 1255.15 592.235C1260.82 595.969 1266.19 599.024 1267.08 599.024C1267.96 599.024 1276.56 603.699 1286.17 609.412C1295.79 615.126 1308.45 622.345 1314.32 625.455C1320.18 628.563 1326.27 632.193 1327.86 633.519C1329.44 634.846 1331.32 635.93 1332.04 635.93C1332.76 635.93 1337.84 638.698 1343.32 642.081C1348.8 645.464 1353.98 648.232 1354.84 648.232C1355.7 648.232 1357.36 649.344 1358.53 650.707C1359.71 652.066 1363.29 654.448 1366.5 655.996C1369.71 657.545 1376.06 660.979 1380.6 663.627C1407.03 679.011 1419.5 686.318 1433.35 694.511C1441.86 699.551 1452.14 705.633 1456.18 708.027C1460.23 710.42 1465.14 713.384 1467.11 714.612C1478.15 721.509 1480.88 721.853 1497.09 718.398C1513.3 714.943 1529.02 714.021 1530.57 716.431C1531.07 717.211 1536.24 720.156 1542.06 722.978C1547.88 725.8 1554.27 729.547 1556.26 731.304C1562.1 736.472 1568.49 734.559 1572.52 726.439C1574.43 722.573 1576.69 718.036 1577.52 716.358C1578.36 714.681 1579.05 711.365 1579.05 708.992C1579.05 706.621 1579.69 704.296 1580.47 703.829C1581.25 703.364 1582.09 700.46 1582.34 697.379C1582.59 694.3 1583.58 690.336 1584.56 688.574C1585.53 686.811 1586.33 683.577 1586.33 681.385C1586.33 676.999 1603.98 640.676 1606.57 639.738C1607.46 639.416 1608.19 637.589 1608.19 635.68C1608.19 633.77 1608.87 632.615 1609.71 633.116C1610.54 633.616 1612.62 631.199 1614.33 627.743L1617.43 621.464L1621.51 625.622C1624.95 629.13 1625.38 630.875 1624.23 636.809C1623.49 640.675 1622 648.897 1620.92 655.078C1619.84 661.259 1618.17 667.731 1617.22 669.461C1616.26 671.192 1615.47 674.117 1615.47 675.964C1615.47 677.809 1613.81 683.991 1611.78 689.7C1609.74 695.407 1607.78 701.264 1607.42 702.714C1607.05 704.162 1602.16 713.994 1596.54 724.559C1586.01 744.372 1584.89 748.7 1588.37 756.066C1590.05 759.624 1589.61 762.032 1585.88 769.901C1582.44 777.157 1581.85 780.024 1583.39 781.931C1585.79 784.885 1594.57 790.56 1614.56 802.075C1622.57 806.691 1635.69 814.446 1643.7 819.309C1651.72 824.172 1670.98 835.497 1686.5 844.476C1702.03 853.454 1718.42 862.95 1722.93 865.578C1769.95 892.989 1805.58 913.608 1805.92 913.608C1806.14 913.608 1815.46 919.144 1826.61 925.911C1837.76 932.677 1847.32 938.213 1847.87 938.213C1848.4 938.213 1852.42 940.584 1856.79 943.485C1861.16 946.386 1865.17 948.758 1865.71 948.758C1866.56 948.758 1877.46 955.139 1903.23 970.715C1906.74 972.832 1921.49 981.191 1936.02 989.288C1950.54 997.384 1966.86 1007 1972.29 1010.65C1977.71 1014.31 1982.83 1017.3 1983.67 1017.3C1984.5 1017.3 1989.18 1020.07 1994.06 1023.45C1998.94 1026.83 2003.42 1029.6 2004.03 1029.6C2004.63 1029.6 2015.6 1035.66 2028.4 1043.06C2041.2 1050.46 2053.87 1057.77 2056.57 1059.31C2077.39 1071.2 2092.97 1079.89 2099.93 1083.51C2112.6 1090.1 2116.04 1092.09 2119.5 1094.87C2121.26 1096.28 2127.61 1100.24 2133.62 1103.67C2157.83 1117.47 2202.2 1143.05 2221.83 1154.52C2233.27 1161.21 2243.03 1166.68 2243.51 1166.68C2243.99 1166.68 2247.06 1168.66 2250.35 1171.08C2253.63 1173.49 2256.77 1175.47 2257.32 1175.47C2257.86 1175.47 2262.8 1178.24 2268.28 1181.62C2273.76 1185 2278.76 1187.77 2279.39 1187.77C2280.02 1187.77 2285.18 1190.66 2290.86 1194.19C2309.95 1206.06 2313.85 1208.38 2337.61 1222.03C2350.63 1229.51 2365.38 1238.03 2370.39 1240.96C2375.4 1243.89 2393.84 1254.6 2411.37 1264.76C2428.9 1274.91 2446.67 1285.47 2450.86 1288.22C2455.04 1290.97 2458.88 1293.22 2459.37 1293.22C2459.87 1293.22 2466.95 1297.17 2475.11 1302.01C2483.27 1306.84 2490.3 1310.79 2490.73 1310.79C2491.16 1310.79 2499.91 1316.16 2510.18 1322.72C2520.44 1329.28 2536.01 1338.42 2544.78 1343.02C2558.37 1350.17 2560.71 1352.06 2560.71 1355.87C2560.71 1361.13 2553.57 1368.12 2541.12 1375.02C2536.37 1377.65 2530.85 1381.21 2528.84 1382.92C2526.84 1384.63 2520.13 1388.07 2513.93 1390.57C2495.91 1397.82 2454.49 1425.48 2437.02 1441.92C2428.42 1450.01 2420.48 1456.64 2419.37 1456.65C2416.9 1456.66 2400.29 1447.45 2340.34 1412.77C2314.8 1398 2291.03 1384.35 2287.52 1382.43C2284.02 1380.52 2280.33 1378.33 2279.33 1377.55C2278.32 1376.77 2254.56 1362.74 2226.51 1346.37C2198.46 1330 2167.08 1311.54 2156.78 1305.35C2133.56 1291.41 2135.55 1292.56 2092.65 1268.15C2073.11 1257.03 2052.44 1245.18 2046.71 1241.81C2030.77 1232.44 2029.65 1233.16 2019.03 1259.54C2000.12 1306.48 1986.96 1348.77 1979.67 1386.01C1976.07 1404.4 1976 1406.18 1978.7 1410.17C1980.31 1412.55 1982.47 1414.48 1983.51 1414.48C1984.54 1414.48 1990.87 1417.92 1997.58 1422.11C2004.29 1426.31 2018.79 1434.34 2029.81 1439.97C2040.83 1445.6 2059.27 1455.48 2070.79 1461.92C2090.67 1473.05 2102.66 1479.52 2125.43 1491.38C2130.94 1494.26 2138.31 1498.17 2141.82 1500.08C2145.33 1501.99 2162.95 1511.31 2180.98 1520.78C2199.01 1530.25 2218.27 1540.56 2223.78 1543.68C2235.82 1550.51 2245.34 1555.62 2272.95 1570.05C2298.01 1583.15 2304.67 1586.74 2320.62 1595.7C2327.31 1599.46 2333.14 1602.53 2333.57 1602.53C2334.63 1602.53 2354.12 1613.02 2383.14 1629.2C2406.25 1642.09 2427.22 1652.74 2437.35 1656.73C2450.45 1661.9 2447.29 1677.14 2431.98 1682.62C2427.16 1684.35 2421.16 1687.11 2418.65 1688.77C2416.15 1690.42 2408.82 1693.85 2402.36 1696.38C2395.91 1698.91 2385.61 1704.13 2379.47 1707.99C2373.33 1711.85 2367.65 1715.01 2366.83 1715.01C2366.01 1715.01 2363.62 1716.88 2361.49 1719.17C2358.13 1722.8 2345.8 1727.03 2345.8 1724.55L2345.8 1724.54ZM1938.87 1365.7C1953.53 1336.2 1968.53 1301.17 1980.09 1269.48C1991.82 1237.3 1998.06 1216.46 1996.86 1213.44C1996.32 1212.11 1987.75 1206.09 1977.79 1200.08C1967.84 1194.07 1959.69 1188.61 1959.69 1187.94C1959.69 1185.94 1986.71 1159.64 1988.76 1159.64C1989.8 1159.64 1990.66 1158.74 1990.66 1157.64C1990.66 1156.54 1992.09 1154.62 1993.84 1153.37C1996.75 1151.31 1996.77 1151.01 1994.06 1149.99C1991.01 1148.85 1964.6 1166.45 1956.76 1174.85C1954.64 1177.12 1951.49 1178.98 1949.77 1178.98C1947.13 1178.98 1910.64 1158.19 1893.76 1147.08C1891.05 1145.29 1888.36 1143.83 1887.8 1143.83C1887.23 1143.83 1878.39 1139.03 1868.15 1133.17C1857.9 1127.31 1848.29 1121.82 1846.79 1120.98C1845.28 1120.14 1837.72 1115.84 1829.98 1111.43C1822.24 1107.02 1815.47 1103.41 1814.94 1103.41C1813.69 1103.41 1784.19 1087 1757.54 1071.47C1737.5 1059.8 1723.5 1051.39 1692.45 1032.36C1679.63 1024.5 1615.02 986.581 1569.04 959.935C1524.35 934.033 1518.32 930.95 1514.26 931.933C1511.03 932.717 1508.34 937.574 1500.79 956.208C1495.61 969.023 1489.5 983.065 1487.22 987.415C1484.95 991.765 1479.48 1004.35 1475.07 1015.38L1467.05 1035.43L1453.85 1043.5C1446.59 1047.93 1432.01 1056.68 1421.45 1062.94C1406.73 1071.66 1402.37 1075.1 1402.78 1077.66C1403.11 1079.79 1410.79 1085.38 1423.95 1093.08C1435.31 1099.73 1445.28 1105.16 1446.11 1105.16C1446.94 1105.16 1447.9 1105.76 1448.23 1106.48C1448.95 1108.03 1461.39 1115.58 1488.54 1130.93C1499.35 1137.05 1513.7 1145.51 1520.41 1149.74C1527.12 1153.97 1546.14 1164.93 1562.67 1174.11C1579.2 1183.29 1596.41 1193.19 1600.92 1196.1C1605.42 1199.02 1616.49 1205.36 1625.5 1210.18C1641.21 1218.59 1659.66 1229.65 1663.96 1233.23C1665.08 1234.16 1670 1236.98 1674.89 1239.5C1679.78 1242.02 1686.77 1245.84 1690.41 1248C1733.13 1273.22 1746.8 1281.12 1763.92 1290.45C1781.85 1300.22 1857.56 1343.78 1905.97 1372.17C1915.98 1378.04 1925.57 1382.84 1927.27 1382.84C1929.4 1382.84 1933.05 1377.46 1938.88 1365.71L1938.87 1365.7ZM1867.44 1364.33C1866 1360.7 1864.99 1361.13 1864.99 1365.37C1864.99 1367.36 1865.77 1368.52 1866.73 1367.95C1867.69 1367.37 1868.01 1365.75 1867.44 1364.33V1364.33ZM1251.22 1273.15C1251.22 1270.57 1253.13 1267.56 1256.07 1265.49C1262.07 1261.27 1260.94 1256.34 1254.26 1257.57C1251.76 1258.03 1249.22 1259.72 1248.6 1261.31C1247.99 1262.91 1246.23 1266.39 1244.69 1269.05C1241.52 1274.56 1242.53 1277.39 1247.68 1277.39C1250.2 1277.39 1251.22 1276.18 1251.22 1273.15H1251.22ZM1247.19 1250.79C1246.73 1249.48 1245.91 1250.27 1245.26 1252.65C1244.47 1255.57 1244.71 1256.26 1246.06 1254.95C1247.11 1253.93 1247.63 1252.06 1247.18 1250.79L1247.19 1250.79ZM1255.01 1245.76C1257.52 1245.76 1257.02 1240.98 1254.4 1240.06C1250.58 1238.7 1247.57 1240.59 1247.57 1244.34C1247.57 1246.86 1248.41 1247.58 1250.45 1246.83C1252.04 1246.24 1254.09 1245.76 1255.01 1245.76L1255.01 1245.76ZM999.689 1119.39C1007.68 1112.27 1007.32 1109.13 998.745 1111.21C995.817 1111.92 993.237 1114.48 991.563 1118.35C987.053 1128.77 988.901 1129 999.688 1119.39L999.689 1119.39ZM1068.34 1114.83C1068.97 1112.42 1068.98 1109.19 1068.37 1107.66C1067.14 1104.56 1062.61 1105.16 1062.9 1108.39C1063.01 1109.51 1063.19 1112.41 1063.35 1114.83C1063.72 1120.5 1066.87 1120.5 1068.34 1114.83L1068.34 1114.83ZM810.467 1106.92C810.467 1105.95 809.647 1105.16 808.648 1105.16C807.645 1105.16 806.825 1105.95 806.825 1106.92C806.825 1107.89 807.645 1108.68 808.648 1108.68C809.651 1108.68 810.467 1107.89 810.467 1106.92ZM1078.06 1092.71C1080.08 1083.6 1079.56 1080.56 1075.95 1080.56C1074.84 1080.56 1072.64 1079.45 1071.05 1078.09C1065.8 1073.57 1044.88 1066.31 1042.83 1068.29C1041.52 1069.54 1041.64 1071.05 1043.2 1073.14C1044.44 1074.8 1047 1079.39 1048.88 1083.34C1051.16 1088.12 1054.22 1091.29 1058.04 1092.81C1061.19 1094.07 1064.58 1096.57 1065.58 1098.37C1066.58 1100.17 1069.35 1101.65 1071.73 1101.65C1075.47 1101.65 1076.34 1100.41 1078.06 1092.71L1078.06 1092.71ZM820.324 1087.08C821.768 1084.87 821.505 1083.43 819.266 1081.27C816.51 1078.6 816.127 1078.68 814.148 1082.25C810.05 1089.64 815.742 1094.09 820.324 1087.08L820.324 1087.08ZM795.898 1086.05C795.898 1085.2 794.669 1083.52 793.167 1082.32C790.95 1080.54 790.436 1080.61 790.436 1082.69C790.436 1084.1 790.983 1085.78 791.65 1086.42C793.378 1088.09 795.9 1087.87 795.9 1086.05H795.898ZM844.721 1072.94C844.575 1068.8 845.461 1065.58 847.044 1064.62C848.462 1063.75 848.758 1063.03 847.697 1063.01C841.264 1062.91 837.462 1071.93 840.378 1080.35C842.416 1086.24 845.059 1081.73 844.721 1072.94V1072.94ZM1120.08 1079.78C1120.08 1078.39 1119.35 1076.82 1118.45 1076.28C1116.58 1075.16 1114.32 1079.68 1115.96 1081.27C1117.92 1083.15 1120.08 1082.37 1120.08 1079.79L1120.08 1079.78ZM1003.94 1071.95C1003.32 1067.88 1005.05 1064.55 1012.62 1055.26C1017.81 1048.88 1022.69 1043.65 1023.44 1043.65C1024.2 1043.65 1026.31 1045.25 1028.14 1047.19L1031.46 1050.73L1035.7 1046.89C1038.04 1044.77 1039.95 1041.99 1039.95 1040.71C1039.95 1039.43 1040.77 1038.38 1041.77 1038.38C1042.77 1038.38 1043.59 1036.4 1043.59 1033.99C1043.59 1031.57 1044.35 1029.59 1045.28 1029.59C1046.21 1029.59 1047.91 1025.24 1049.05 1019.93C1050.2 1014.61 1051.89 1010.26 1052.83 1010.26C1053.76 1010.26 1054.52 1008.73 1054.52 1006.85C1054.52 1004.97 1055.34 1002.95 1056.34 1002.35C1057.34 1001.75 1058.16 997.814 1058.16 993.596C1058.16 986.645 1058.98 985.217 1066.98 978.323C1078.36 968.514 1090.3 943.831 1087.92 935.043C1087.38 933.041 1082.44 928.783 1076.96 925.578C1071.47 922.373 1064.14 917.972 1060.67 915.797C1057.19 913.622 1053.25 911.842 1051.9 911.842C1050.55 911.842 1049.01 910.769 1048.49 909.46C1047.97 908.151 1042.76 904.496 1036.91 901.341C1031.07 898.186 1022.39 892.93 1017.63 889.663C1012.87 886.394 1007.84 883.723 1006.47 883.723C1005.09 883.723 1003.01 882.614 1001.84 881.262C999.858 878.952 976.815 865.224 957.651 854.932C952.961 852.414 947.96 850.783 946.537 851.31C944.254 852.154 940.703 858.711 934.692 873.179C933.332 876.448 933.047 873.537 933.576 861.756C934.364 844.163 937.274 832.758 940.975 832.758C942.317 832.758 943.414 831.57 943.414 830.122C943.414 828.673 944.439 827.479 945.69 827.476C946.94 827.476 949.423 824.997 951.203 821.977L954.441 816.49L958.489 820.443C960.717 822.617 971.143 829.165 981.661 834.996C992.179 840.826 1007.75 849.735 1016.27 854.794C1024.78 859.852 1038.3 867.706 1046.32 872.247C1054.33 876.789 1069.41 885.614 1079.83 891.858C1090.25 898.103 1100.08 902.97 1101.68 902.673C1103.44 902.352 1105.55 898.633 1107.06 893.16C1109.5 884.381 1109.85 884.045 1123.17 877.689C1130.66 874.116 1142.09 867.686 1148.58 863.399C1155.07 859.113 1161.2 855.606 1162.21 855.606C1167.32 855.606 1180.71 844.168 1183.83 837.129C1191.68 819.475 1210.53 761.007 1211.53 751.225C1212.02 746.485 1210.94 745.555 1195.66 737.516C1186.65 732.773 1173.53 725.098 1166.52 720.46C1153.03 711.538 1125.97 696.033 1118.15 692.746C1115.59 691.669 1103.71 684.574 1091.74 676.979C1079.78 669.383 1068.57 662.376 1066.83 661.409C1065.09 660.44 1050.75 651.643 1034.96 641.858C1019.17 632.073 998.872 619.907 989.857 614.822C980.841 609.737 966.499 601.424 957.984 596.351C949.47 591.277 934.718 582.782 925.201 577.472C904.086 565.69 880.349 552.015 874.206 548.093C871.701 546.495 859.408 539.386 846.886 532.295C834.365 525.205 815.105 514.123 804.087 507.669C793.068 501.213 772.807 489.486 759.064 481.609C745.32 473.731 729.338 463.773 723.549 459.48C717.759 455.188 710.419 450.227 707.237 448.458C694.895 441.594 674.539 429.653 669.685 426.429C660.344 420.226 657.693 422.289 648.895 442.604C620.658 507.811 597.373 582.246 597.372 607.311C597.372 613.731 599.419 615.206 638.35 636.809C659.303 648.436 707.425 676.218 779.499 718.298C798.03 729.117 814.422 738.728 815.925 739.655C817.427 740.581 822.345 743.353 826.853 745.814C837.071 751.393 842.537 754.599 868.742 770.375C896.439 787.05 912.848 795.517 915.64 794.572C916.89 794.15 917.944 792.484 917.977 790.873C918.013 788.065 922.122 776.246 926.892 765.097C928.132 762.197 929.809 756.661 930.618 752.795C932.248 744.999 933.145 748.569 932.605 760.703C932.423 765.053 933.572 771.635 935.183 775.33C939.031 784.158 941.656 798.019 939.901 800.242C936.842 804.111 932.488 820.713 932.488 828.502C932.488 833.897 931.518 837.449 929.695 838.735C928.16 839.819 925.758 845.443 924.358 851.234C922.958 857.025 920.531 864.134 918.964 867.032C917.396 869.929 915.61 874.872 914.992 878.014C914.376 881.154 913.14 883.725 912.25 883.725C911.361 883.725 910.631 885.585 910.631 887.856C910.631 893.122 907.08 903.057 905.196 903.057C904.405 903.057 903.307 905.232 902.757 907.89C900.558 918.506 896.893 930.958 895.603 932.203C894.852 932.929 894.24 934.971 894.24 936.742C894.24 938.512 893.419 939.964 892.42 939.964C891.418 939.964 890.601 941.888 890.601 944.243C890.601 946.597 889.653 950.749 888.493 953.47C887.334 956.192 886.054 960.394 885.65 962.811C885.245 965.228 884.144 967.468 883.203 967.791C882.262 968.112 881.493 970.616 881.493 973.356C881.493 976.095 880.468 978.668 879.218 979.075C877.431 979.654 877.464 980.426 879.364 982.659C880.702 984.222 881.216 986.411 880.505 987.52C879.794 988.629 881.405 988.154 884.085 986.458C886.765 984.763 890.275 980.926 891.888 977.928C896.296 969.734 896.746 975.178 892.697 987.737C888.745 1000 868.303 1053.62 864.235 1062.4C861.963 1067.3 861.989 1068.08 864.49 1069C869.369 1070.81 953.283 1076.16 985.451 1076.71L1004.71 1077.04L1003.94 1071.95L1003.94 1071.95ZM852.357 1057.71C852.357 1056.75 851.584 1055.96 850.643 1055.96C849.699 1055.96 848.423 1056.75 847.803 1057.71C847.183 1058.68 847.949 1059.47 849.517 1059.47C851.077 1059.47 852.357 1058.68 852.357 1057.71ZM1189.29 1055.08C1189.29 1053.63 1188.06 1052.44 1186.56 1052.44C1185.06 1052.44 1183.83 1053.63 1183.83 1055.08C1183.83 1056.53 1185.06 1057.71 1186.56 1057.71C1188.06 1057.71 1189.29 1056.53 1189.29 1055.08ZM860.265 1049.89C860.939 1048.2 860.411 1047.67 858.65 1048.32C857.206 1048.86 856.473 1050 857.027 1050.87C858.424 1053.05 859.091 1052.85 860.265 1049.89ZM1260.32 1030.58C1260.32 1029.19 1259.67 1027.65 1258.87 1027.18C1256.54 1025.79 1252.45 1029.01 1253.82 1031.16C1255.63 1033.98 1260.32 1033.56 1260.32 1030.58H1260.32ZM877.855 997.96C877.855 996.994 877.034 996.203 876.035 996.203C875.033 996.203 874.212 996.994 874.212 997.96C874.212 998.925 875.033 999.716 876.035 999.716C877.038 999.716 877.855 998.925 877.855 997.96ZM877.355 990.93C877.209 988.999 876.436 987.414 875.649 987.414C874.861 987.414 874.216 988.995 874.216 990.93C874.216 992.861 874.985 994.446 875.926 994.446C876.867 994.446 877.512 992.865 877.359 990.93H877.355ZM1721.19 915.51C1720.07 913.493 1717.93 911.844 1716.43 911.844C1714.93 911.844 1711.3 909.473 1708.36 906.572C1705.42 903.672 1702.45 901.3 1701.76 901.3C1701.07 901.3 1697.97 899.44 1694.87 897.167C1686.74 891.203 1677.57 886.93 1675.52 888.151C1670.91 890.901 1676.27 897.183 1682.41 896.228C1683.66 896.049 1684.68 896.675 1684.68 897.655C1684.68 898.635 1685.91 898.978 1687.41 898.424C1689.14 897.784 1690.14 898.448 1690.14 900.237C1690.14 901.789 1691.05 903.063 1692.15 903.063C1693.26 903.063 1696.6 905.04 1699.58 907.456C1702.56 909.874 1706.36 911.878 1708.04 911.913C1709.72 911.948 1713.51 913.89 1716.48 916.228C1722.61 921.066 1724.14 920.836 1721.19 915.517L1721.19 915.51ZM1238.47 810.791C1245.25 806.441 1251.31 802.882 1251.95 802.882C1252.58 802.882 1257.59 800.003 1263.08 796.483C1270.55 791.698 1273.07 789.022 1273.07 785.882C1273.07 783.572 1271.72 781.18 1270.06 780.566C1268.4 779.951 1262.51 776.813 1256.96 773.591C1251.42 770.368 1245.83 767.733 1244.54 767.733C1242.16 767.733 1239.12 773.448 1228.2 798.432C1221.82 813.04 1220.67 818.7 1224.11 818.7C1225.23 818.7 1231.69 815.141 1238.47 810.791H1238.47ZM1221.5 744.557C1220.92 743.155 1220.49 743.57 1220.4 745.619C1220.33 747.472 1220.76 748.509 1221.35 747.926C1221.96 747.343 1222.03 745.827 1221.5 744.557V744.557ZM1047.23 516.505C1047.23 514.592 1032.16 503.9 1023.56 499.708C1020.05 498.002 1014.11 494.273 1010.35 491.424C1006.6 488.578 1003.52 486.829 1003.52 487.544C1003.52 488.259 1001.97 487.472 1000.08 485.834C998.029 484.046 997.009 481.441 997.559 479.411C998.759 474.988 1001.14 475.047 1002.62 479.518C1003.26 481.464 1004.48 482.647 1005.32 482.143C1006.16 481.639 1007.27 482.214 1007.78 483.434C1008.51 485.176 1009.07 485.147 1010.4 483.327C1011.78 481.428 1012.63 481.51 1014.96 483.767C1018.1 486.792 1019.91 487.3 1019.91 485.154C1019.91 483.398 1008.57 476.792 1006.57 477.386C1005.75 477.637 1005.56 477.064 1006.15 476.152C1007.9 473.42 1004.02 472.222 997.34 473.431C991.333 474.518 991.076 474.89 990.48 483.351C990.151 488.186 990.261 492.711 990.771 493.406C992.802 496.225 1008.53 505.522 1015.12 507.801C1019 509.139 1023.58 511.964 1025.3 514.077C1030.71 520.711 1047.23 522.533 1047.23 516.495L1047.23 516.505ZM1049.05 502.357C1049.05 501.392 1048.69 500.601 1048.25 500.601C1047.81 500.601 1046.94 501.392 1046.32 502.357C1045.7 503.323 1046.07 504.113 1047.13 504.113C1048.19 504.113 1049.05 503.323 1049.05 502.357ZM1032.66 492.795C1032.66 492.37 1031.84 491.533 1030.84 490.935C1029.84 490.338 1029.02 490.685 1029.02 491.711C1029.02 492.734 1029.84 493.571 1030.84 493.571C1031.85 493.571 1032.66 493.214 1032.66 492.795ZM726.689 451.391C726.689 450.426 725.869 449.635 724.867 449.635C723.866 449.635 723.046 450.426 723.046 451.391C723.046 452.357 723.866 453.147 724.867 453.147C725.869 453.147 726.689 452.357 726.689 451.391ZM565.801 338.475C565.296 337.266 564.883 338.26 564.883 340.671C564.883 343.089 565.296 344.076 565.801 342.867C566.307 341.658 566.307 339.68 565.801 338.473V338.475ZM1165.62 1413.16C1165.62 1412.31 1168.28 1410.28 1171.54 1408.66C1179.29 1404.8 1183.33 1402.31 1191.37 1396.46C1195.02 1393.81 1198.99 1391.63 1200.18 1391.63C1201.37 1391.63 1204.94 1389.05 1208.11 1385.9C1215.41 1378.66 1225.81 1370.99 1229.36 1370.24C1230.86 1369.92 1233.9 1367.88 1236.1 1365.71C1238.31 1363.53 1241.01 1361.75 1242.1 1361.75C1244 1361.75 1246.13 1360.33 1252.31 1354.92C1254.24 1353.23 1255.67 1353.05 1256.99 1354.32C1260.79 1357.99 1231.51 1383.56 1213.55 1392.26C1208.37 1394.78 1203.6 1397.64 1202.97 1398.63C1202.34 1399.61 1199.42 1400.42 1196.47 1400.42C1193.52 1400.42 1191.11 1401.19 1191.11 1402.15C1191.11 1403.89 1177.27 1411.23 1169.71 1413.49C1167.46 1414.16 1165.62 1414.02 1165.62 1413.17V1413.16ZM1236.7 1217.71C1235.23 1216.81 1234.49 1215.62 1235.07 1215.06C1236.51 1213.68 1242.11 1215.88 1242.11 1217.83C1242.11 1219.83 1240.11 1219.79 1236.7 1217.72L1236.7 1217.71ZM837.93 1093.59C838.003 1091.55 838.448 1091.13 839.031 1092.53C839.556 1093.8 839.494 1095.32 838.885 1095.9C838.28 1096.48 837.85 1095.45 837.93 1093.59V1093.59Z" fill="#0C0C0C"/>
</svg>
